<?xml version="1.0" encoding="UTF-8"?>
<svg xmlns="http://www.w3.org/2000/svg" viewBox="0 0 1600 900" width="1600" height="900">
<rect width="100%" height="100%" fill="white"/>
<text x="70" y="28" font-family="sans-serif" font-size="18" fill="#222">segment build: sgm_1</text>
<text x="70" y="48" font-family="sans-serif" font-size="12" fill="#555">route=layered  closed=N  base=2  layers=4  faces=4  inverted=0  sliver=0  degenerate=0</text>
<polygon points="70,457.3 1530,457.3 1530,453.65 70,453.65 " fill="#cfe8ff" fill-opacity="0.75" stroke="#666" stroke-width="0.6" />
<polygon points="70,453.65 1530,453.65 1530,450 70,450 " fill="#ffe0b3" fill-opacity="0.75" stroke="#666" stroke-width="0.6" />
<polygon points="70,446.35 1530,446.35 1530,442.7 70,442.7 " fill="#f5d0e6" fill-opacity="0.75" stroke="#666" stroke-width="0.6" />
<polygon points="70,450 1530,450 1530,446.35 70,446.35 " fill="#d7f5d3" fill-opacity="0.75" stroke="#666" stroke-width="0.6" />
<polyline fill="none" stroke="#1f77b4" stroke-width="1.6" points="70,457.3 1530,457.3 " />
<polyline fill="none" stroke="#ff7f0e" stroke-width="1.6" points="70,442.7 1530,442.7 " />
<g font-family="sans-serif" font-size="12">
<rect x="1338" y="52" width="242" height="118" fill="#fafafa" stroke="#ccc"/>
<line x1="1350" y1="70" x2="1374" y2="70" stroke="#1f77b4" stroke-width="2"/>
<text x="1382" y="74">base curve</text>
<line x1="1350" y1="90" x2="1374" y2="90" stroke="#ff7f0e" stroke-width="2"/>
<text x="1382" y="94">offset / shell</text>
<rect x="1350" y="102" width="20" height="12" fill="#f3b0b0" stroke="#d62728" stroke-width="2"/>
<text x="1382" y="112">inverted face</text>
<rect x="1350" y="122" width="20" height="12" fill="#fff5b3" stroke="#ff7f0e" stroke-width="1.6"/>
<text x="1382" y="132">sliver face</text>
<text x="1350" y="154" fill="#444">fills cycle by layer index</text>
</g>
</svg>
