<?xml version="1.0" encoding="UTF-8"?>
<svg xmlns="http://www.w3.org/2000/svg" viewBox="0 0 1600 900" width="1600" height="900">
<rect width="100%" height="100%" fill="white"/>
<text x="70" y="28" font-family="sans-serif" font-size="18" fill="#222">segment build: sg_v</text>
<text x="70" y="48" font-family="sans-serif" font-size="12" fill="#555">route=legacy  closed=N  base=3  layers=0  faces=21  inverted=0  sliver=0  degenerate=0</text>
<polygon points="431.347,71.634 797.742,804.423 800,800.769 434.615,70 " fill="#e8e8e8" fill-opacity="0.75" stroke="#666" stroke-width="0.6" />
<polygon points="428.079,73.2681 795.484,808.077 797.742,804.423 431.347,71.634 " fill="#e8e8e8" fill-opacity="0.75" stroke="#666" stroke-width="0.6" />
<polygon points="424.811,74.9021 793.225,811.731 795.484,808.077 428.079,73.2681 " fill="#e8e8e8" fill-opacity="0.75" stroke="#666" stroke-width="0.6" />
<polygon points="418.275,78.1702 788.709,819.038 793.225,811.731 424.811,74.9021 " fill="#e8e8e8" fill-opacity="0.75" stroke="#666" stroke-width="0.6" />
<polygon points="415.007,79.8043 786.451,822.692 788.709,819.038 418.275,78.1702 " fill="#e8e8e8" fill-opacity="0.75" stroke="#666" stroke-width="0.6" />
<polygon points="411.739,81.4383 784.193,826.346 786.451,822.692 415.007,79.8043 " fill="#e8e8e8" fill-opacity="0.75" stroke="#666" stroke-width="0.6" />
<polygon points="408.471,83.0724 781.934,830 784.193,826.346 411.739,81.4383 " fill="#e8e8e8" fill-opacity="0.75" stroke="#666" stroke-width="0.6" />
<polygon points="797.742,804.423 802.258,804.423 800,800.769 " fill="#e8e8e8" fill-opacity="0.75" stroke="#666" stroke-width="0.6" />
<polygon points="795.484,808.077 804.516,808.077 802.258,804.423 797.742,804.423 " fill="#e8e8e8" fill-opacity="0.75" stroke="#666" stroke-width="0.6" />
<polygon points="793.225,811.731 806.775,811.731 804.516,808.077 795.484,808.077 " fill="#e8e8e8" fill-opacity="0.75" stroke="#666" stroke-width="0.6" />
<polygon points="788.709,819.038 811.291,819.038 806.775,811.731 793.225,811.731 " fill="#e8e8e8" fill-opacity="0.75" stroke="#666" stroke-width="0.6" />
<polygon points="786.451,822.692 813.549,822.692 811.291,819.038 788.709,819.038 " fill="#e8e8e8" fill-opacity="0.75" stroke="#666" stroke-width="0.6" />
<polygon points="784.193,826.346 815.807,826.346 813.549,822.692 786.451,822.692 " fill="#e8e8e8" fill-opacity="0.75" stroke="#666" stroke-width="0.6" />
<polygon points="781.934,830 818.066,830 815.807,826.346 784.193,826.346 " fill="#e8e8e8" fill-opacity="0.75" stroke="#666" stroke-width="0.6" />
<polygon points="800,800.769 802.258,804.423 1168.65,71.634 1165.38,70 " fill="#e8e8e8" fill-opacity="0.75" stroke="#666" stroke-width="0.6" />
<polygon points="802.258,804.423 804.516,808.077 1171.92,73.2681 1168.65,71.634 " fill="#e8e8e8" fill-opacity="0.75" stroke="#666" stroke-width="0.6" />
<polygon points="804.516,808.077 806.775,811.731 1175.19,74.9021 1171.92,73.2681 " fill="#e8e8e8" fill-opacity="0.75" stroke="#666" stroke-width="0.6" />
<polygon points="806.775,811.731 811.291,819.038 1181.73,78.1702 1175.19,74.9021 " fill="#e8e8e8" fill-opacity="0.75" stroke="#666" stroke-width="0.6" />
<polygon points="811.291,819.038 813.549,822.692 1184.99,79.8043 1181.73,78.1702 " fill="#e8e8e8" fill-opacity="0.75" stroke="#666" stroke-width="0.6" />
<polygon points="813.549,822.692 815.807,826.346 1188.26,81.4383 1184.99,79.8043 " fill="#e8e8e8" fill-opacity="0.75" stroke="#666" stroke-width="0.6" />
<polygon points="815.807,826.346 818.066,830 1191.53,83.0724 1188.26,81.4383 " fill="#e8e8e8" fill-opacity="0.75" stroke="#666" stroke-width="0.6" />
<polyline fill="none" stroke="#1f77b4" stroke-width="1.6" points="434.615,70 800,800.769 1165.38,70 " />
<polyline fill="none" stroke="#ff7f0e" stroke-width="1.6" points="408.471,83.0724 781.934,830 818.066,830 1191.53,83.0724 " />
<g font-family="sans-serif" font-size="12">
<rect x="1338" y="52" width="242" height="118" fill="#fafafa" stroke="#ccc"/>
<line x1="1350" y1="70" x2="1374" y2="70" stroke="#1f77b4" stroke-width="2"/>
<text x="1382" y="74">base curve</text>
<line x1="1350" y1="90" x2="1374" y2="90" stroke="#ff7f0e" stroke-width="2"/>
<text x="1382" y="94">offset / shell</text>
<rect x="1350" y="102" width="20" height="12" fill="#f3b0b0" stroke="#d62728" stroke-width="2"/>
<text x="1382" y="112">inverted face</text>
<rect x="1350" y="122" width="20" height="12" fill="#fff5b3" stroke="#ff7f0e" stroke-width="1.6"/>
<text x="1382" y="132">sliver face</text>
<text x="1350" y="154" fill="#444">fills cycle by layer index</text>
</g>
</svg>
