<?xml version="1.0" encoding="UTF-8"?>
<svg xmlns="http://www.w3.org/2000/svg" viewBox="0 0 1600 800" width="1600" height="800">
<rect width="100%" height="100%" fill="white"/>
<text x="60" y="24" font-family="sans-serif" font-size="18" fill="#222">base-offset map: sg_hps_3</text>
<text x="60" y="44" font-family="sans-serif" font-size="12" fill="#555">base verts = 11,  offset verts = 11 (raw 0 / resampled 11),  pairs = 11,  bbox y=[-0.256994, 0.54457]  z=[-0.107095, -0.024086]</text>
<g stroke="#888" stroke-width="0.7" opacity="0.7">
<line x1="60" y1="438.937" x2="76.2969" y2="327.015" />
<line x1="162.347" y1="453.84" x2="175.883" y2="341.515" />
<line x1="291.323" y1="466.165" x2="299.7" y2="353.348" />
<line x1="432.42" y1="473.645" x2="436.524" y2="360.601" />
<line x1="584.809" y1="476.634" x2="585.541" y2="363.524" />
<line x1="747.181" y1="475.554" x2="745.258" y2="362.462" />
<line x1="918.087" y1="470.874" x2="914.107" y2="357.838" />
<line x1="1095.81" y1="463.225" x2="1090.3" y2="350.256" />
<line x1="1278.39" y1="453.249" x2="1271.75" y2="340.34" />
<line x1="1463.57" y1="441.573" x2="1456.04" y2="328.721" />
<line x1="1540" y1="436.189" x2="1532.05" y2="323.366" />
</g>
<polyline fill="none" stroke="#1f77b4" stroke-width="1.4" points="60,438.937 162.347,453.84 291.323,466.165 432.42,473.645 584.809,476.634 747.181,475.554 918.087,470.874 1095.81,463.225 1278.39,453.249 1463.57,441.573 1540,436.189 " />
<polyline fill="none" stroke="#ff7f0e" stroke-width="1.4" points="76.2969,327.015 175.883,341.515 299.7,353.348 436.524,360.601 585.541,363.524 745.258,362.462 914.107,357.838 1090.3,350.256 1271.75,340.34 1456.04,328.721 1532.05,323.366 " />
<circle cx="60" cy="438.937" r="3" fill="#1f77b4" stroke="#0b3d61" stroke-width="0.5" />
<text x="64" y="434.937" font-family="sans-serif" font-size="10" fill="#0b3d61">b0</text>
<circle cx="162.347" cy="453.84" r="3" fill="#1f77b4" stroke="#0b3d61" stroke-width="0.5" />
<text x="166.347" y="449.84" font-family="sans-serif" font-size="10" fill="#0b3d61">b1</text>
<circle cx="291.323" cy="466.165" r="3" fill="#1f77b4" stroke="#0b3d61" stroke-width="0.5" />
<text x="295.323" y="462.165" font-family="sans-serif" font-size="10" fill="#0b3d61">b2</text>
<circle cx="432.42" cy="473.645" r="3" fill="#1f77b4" stroke="#0b3d61" stroke-width="0.5" />
<text x="436.42" y="469.645" font-family="sans-serif" font-size="10" fill="#0b3d61">b3</text>
<circle cx="584.809" cy="476.634" r="3" fill="#1f77b4" stroke="#0b3d61" stroke-width="0.5" />
<text x="588.809" y="472.634" font-family="sans-serif" font-size="10" fill="#0b3d61">b4</text>
<circle cx="747.181" cy="475.554" r="3" fill="#1f77b4" stroke="#0b3d61" stroke-width="0.5" />
<text x="751.181" y="471.554" font-family="sans-serif" font-size="10" fill="#0b3d61">b5</text>
<circle cx="918.087" cy="470.874" r="3" fill="#1f77b4" stroke="#0b3d61" stroke-width="0.5" />
<text x="922.087" y="466.874" font-family="sans-serif" font-size="10" fill="#0b3d61">b6</text>
<circle cx="1095.81" cy="463.225" r="3" fill="#1f77b4" stroke="#0b3d61" stroke-width="0.5" />
<text x="1099.81" y="459.225" font-family="sans-serif" font-size="10" fill="#0b3d61">b7</text>
<circle cx="1278.39" cy="453.249" r="3" fill="#1f77b4" stroke="#0b3d61" stroke-width="0.5" />
<text x="1282.39" y="449.249" font-family="sans-serif" font-size="10" fill="#0b3d61">b8</text>
<circle cx="1463.57" cy="441.573" r="3" fill="#1f77b4" stroke="#0b3d61" stroke-width="0.5" />
<text x="1467.57" y="437.573" font-family="sans-serif" font-size="10" fill="#0b3d61">b9</text>
<circle cx="1540" cy="436.189" r="3" fill="#1f77b4" stroke="#0b3d61" stroke-width="0.5" />
<text x="1544" y="432.189" font-family="sans-serif" font-size="10" fill="#0b3d61">b10</text>
<rect x="72.2969" y="323.015" width="8" height="8" fill="white" stroke="#7a3d05" stroke-width="1.2" />
<text x="80.2969" y="339.015" font-family="sans-serif" font-size="10" fill="#7a3d05">o0</text>
<rect x="171.883" y="337.515" width="8" height="8" fill="white" stroke="#7a3d05" stroke-width="1.2" />
<text x="179.883" y="353.515" font-family="sans-serif" font-size="10" fill="#7a3d05">o1</text>
<rect x="295.7" y="349.348" width="8" height="8" fill="white" stroke="#7a3d05" stroke-width="1.2" />
<text x="303.7" y="365.348" font-family="sans-serif" font-size="10" fill="#7a3d05">o2</text>
<rect x="432.524" y="356.601" width="8" height="8" fill="white" stroke="#7a3d05" stroke-width="1.2" />
<text x="440.524" y="372.601" font-family="sans-serif" font-size="10" fill="#7a3d05">o3</text>
<rect x="581.541" y="359.524" width="8" height="8" fill="white" stroke="#7a3d05" stroke-width="1.2" />
<text x="589.541" y="375.524" font-family="sans-serif" font-size="10" fill="#7a3d05">o4</text>
<rect x="741.258" y="358.462" width="8" height="8" fill="white" stroke="#7a3d05" stroke-width="1.2" />
<text x="749.258" y="374.462" font-family="sans-serif" font-size="10" fill="#7a3d05">o5</text>
<rect x="910.107" y="353.838" width="8" height="8" fill="white" stroke="#7a3d05" stroke-width="1.2" />
<text x="918.107" y="369.838" font-family="sans-serif" font-size="10" fill="#7a3d05">o6</text>
<rect x="1086.3" y="346.256" width="8" height="8" fill="white" stroke="#7a3d05" stroke-width="1.2" />
<text x="1094.3" y="362.256" font-family="sans-serif" font-size="10" fill="#7a3d05">o7</text>
<rect x="1267.75" y="336.34" width="8" height="8" fill="white" stroke="#7a3d05" stroke-width="1.2" />
<text x="1275.75" y="352.34" font-family="sans-serif" font-size="10" fill="#7a3d05">o8</text>
<rect x="1452.04" y="324.721" width="8" height="8" fill="white" stroke="#7a3d05" stroke-width="1.2" />
<text x="1460.04" y="340.721" font-family="sans-serif" font-size="10" fill="#7a3d05">o9</text>
<rect x="1528.05" y="319.366" width="8" height="8" fill="white" stroke="#7a3d05" stroke-width="1.2" />
<text x="1536.05" y="335.366" font-family="sans-serif" font-size="10" fill="#7a3d05">o10</text>
<g font-family="sans-serif" font-size="12">
<rect x="1350" y="12" width="230" height="122" fill="#fafafa" stroke="#ccc"/>
<line x1="1360" y1="30" x2="1384" y2="30" stroke="#1f77b4" stroke-width="2"/>
<circle cx="1372" cy="30" r="3" fill="#1f77b4" stroke="#0b3d61" stroke-width="0.5" />
<text x="1392" y="34" font-family="sans-serif" font-size="12" fill="#0b3d61">base vertex (b_i)</text>
<line x1="1360" y1="50" x2="1384" y2="50" stroke="#ff7f0e" stroke-width="2"/>
<text x="1392" y="54" font-family="sans-serif" font-size="12" fill="#7a3d05">offset curve</text>
<circle cx="1372" cy="70" r="3" fill="#ff7f0e" stroke="#7a3d05" stroke-width="0.5" />
<text x="1392" y="74" font-family="sans-serif" font-size="12" fill="#7a3d05">offset: raw Clipper2</text>
<rect x="1368" y="86" width="8" height="8" fill="white" stroke="#7a3d05" stroke-width="1.2" />
<text x="1392" y="94" font-family="sans-serif" font-size="12" fill="#7a3d05">offset: base-vertex resample</text>
<line x1="1360" y1="110" x2="1384" y2="110" stroke="#888" stroke-width="0.7"/>
<text x="1392" y="114" font-family="sans-serif" font-size="12" fill="#444">pair (b_i, o_j)</text>
</g>
</svg>
