<?xml version="1.0" encoding="UTF-8"?>
<svg xmlns="http://www.w3.org/2000/svg" viewBox="0 0 1600 800" width="1600" height="800">
<rect width="100%" height="100%" fill="white"/>
<text x="60" y="24" font-family="sans-serif" font-size="18" fill="#222">base-offset map: sg_hps_2</text>
<text x="60" y="44" font-family="sans-serif" font-size="12" fill="#555">base verts = 8,  offset verts = 8 (raw 0 / resampled 8),  pairs = 8,  bbox y=[-0.467298, -0.254346]  z=[-0.0866786, -0.00061268]</text>
<g stroke="#888" stroke-width="0.7" opacity="0.7">
<line x1="60" y1="193.885" x2="147.621" y2="100.924" />
<line x1="84.6522" y1="217.121" x2="164.363" y2="116.704" />
<line x1="245.495" y1="323.901" x2="307.978" y2="212.046" />
<line x1="464.831" y1="425.231" x2="512.761" y2="306.653" />
<line x1="744.526" y1="522.751" x2="782.142" y2="400.578" />
<line x1="1080.39" y1="612.772" x2="1109.62" y2="488.353" />
<line x1="1468.75" y1="691.381" x2="1490.64" y2="565.475" />
<line x1="1521.59" y1="699.076" x2="1540" y2="572.663" />
</g>
<polyline fill="none" stroke="#1f77b4" stroke-width="1.4" points="60,193.885 84.6522,217.121 245.495,323.901 464.831,425.231 744.526,522.751 1080.39,612.772 1468.75,691.381 1521.59,699.076 " />
<polyline fill="none" stroke="#ff7f0e" stroke-width="1.4" points="147.621,100.924 164.363,116.704 307.978,212.046 512.761,306.653 782.142,400.578 1109.62,488.353 1490.64,565.475 1540,572.663 " />
<circle cx="60" cy="193.885" r="3" fill="#1f77b4" stroke="#0b3d61" stroke-width="0.5" />
<text x="64" y="189.885" font-family="sans-serif" font-size="10" fill="#0b3d61">b0</text>
<circle cx="84.6522" cy="217.121" r="3" fill="#1f77b4" stroke="#0b3d61" stroke-width="0.5" />
<text x="88.6522" y="213.121" font-family="sans-serif" font-size="10" fill="#0b3d61">b1</text>
<circle cx="245.495" cy="323.901" r="3" fill="#1f77b4" stroke="#0b3d61" stroke-width="0.5" />
<text x="249.495" y="319.901" font-family="sans-serif" font-size="10" fill="#0b3d61">b2</text>
<circle cx="464.831" cy="425.231" r="3" fill="#1f77b4" stroke="#0b3d61" stroke-width="0.5" />
<text x="468.831" y="421.231" font-family="sans-serif" font-size="10" fill="#0b3d61">b3</text>
<circle cx="744.526" cy="522.751" r="3" fill="#1f77b4" stroke="#0b3d61" stroke-width="0.5" />
<text x="748.526" y="518.751" font-family="sans-serif" font-size="10" fill="#0b3d61">b4</text>
<circle cx="1080.39" cy="612.772" r="3" fill="#1f77b4" stroke="#0b3d61" stroke-width="0.5" />
<text x="1084.39" y="608.772" font-family="sans-serif" font-size="10" fill="#0b3d61">b5</text>
<circle cx="1468.75" cy="691.381" r="3" fill="#1f77b4" stroke="#0b3d61" stroke-width="0.5" />
<text x="1472.75" y="687.381" font-family="sans-serif" font-size="10" fill="#0b3d61">b6</text>
<circle cx="1521.59" cy="699.076" r="3" fill="#1f77b4" stroke="#0b3d61" stroke-width="0.5" />
<text x="1525.59" y="695.076" font-family="sans-serif" font-size="10" fill="#0b3d61">b7</text>
<rect x="143.621" y="96.9239" width="8" height="8" fill="white" stroke="#7a3d05" stroke-width="1.2" />
<text x="151.621" y="112.924" font-family="sans-serif" font-size="10" fill="#7a3d05">o0</text>
<rect x="160.363" y="112.704" width="8" height="8" fill="white" stroke="#7a3d05" stroke-width="1.2" />
<text x="168.363" y="128.704" font-family="sans-serif" font-size="10" fill="#7a3d05">o1</text>
<rect x="303.978" y="208.046" width="8" height="8" fill="white" stroke="#7a3d05" stroke-width="1.2" />
<text x="311.978" y="224.046" font-family="sans-serif" font-size="10" fill="#7a3d05">o2</text>
<rect x="508.761" y="302.653" width="8" height="8" fill="white" stroke="#7a3d05" stroke-width="1.2" />
<text x="516.761" y="318.653" font-family="sans-serif" font-size="10" fill="#7a3d05">o3</text>
<rect x="778.142" y="396.578" width="8" height="8" fill="white" stroke="#7a3d05" stroke-width="1.2" />
<text x="786.142" y="412.578" font-family="sans-serif" font-size="10" fill="#7a3d05">o4</text>
<rect x="1105.62" y="484.353" width="8" height="8" fill="white" stroke="#7a3d05" stroke-width="1.2" />
<text x="1113.62" y="500.353" font-family="sans-serif" font-size="10" fill="#7a3d05">o5</text>
<rect x="1486.64" y="561.475" width="8" height="8" fill="white" stroke="#7a3d05" stroke-width="1.2" />
<text x="1494.64" y="577.475" font-family="sans-serif" font-size="10" fill="#7a3d05">o6</text>
<rect x="1536" y="568.663" width="8" height="8" fill="white" stroke="#7a3d05" stroke-width="1.2" />
<text x="1544" y="584.663" font-family="sans-serif" font-size="10" fill="#7a3d05">o7</text>
<g font-family="sans-serif" font-size="12">
<rect x="1350" y="12" width="230" height="122" fill="#fafafa" stroke="#ccc"/>
<line x1="1360" y1="30" x2="1384" y2="30" stroke="#1f77b4" stroke-width="2"/>
<circle cx="1372" cy="30" r="3" fill="#1f77b4" stroke="#0b3d61" stroke-width="0.5" />
<text x="1392" y="34" font-family="sans-serif" font-size="12" fill="#0b3d61">base vertex (b_i)</text>
<line x1="1360" y1="50" x2="1384" y2="50" stroke="#ff7f0e" stroke-width="2"/>
<text x="1392" y="54" font-family="sans-serif" font-size="12" fill="#7a3d05">offset curve</text>
<circle cx="1372" cy="70" r="3" fill="#ff7f0e" stroke="#7a3d05" stroke-width="0.5" />
<text x="1392" y="74" font-family="sans-serif" font-size="12" fill="#7a3d05">offset: raw Clipper2</text>
<rect x="1368" y="86" width="8" height="8" fill="white" stroke="#7a3d05" stroke-width="1.2" />
<text x="1392" y="94" font-family="sans-serif" font-size="12" fill="#7a3d05">offset: base-vertex resample</text>
<line x1="1360" y1="110" x2="1384" y2="110" stroke="#888" stroke-width="0.7"/>
<text x="1392" y="114" font-family="sans-serif" font-size="12" fill="#444">pair (b_i, o_j)</text>
</g>
</svg>
