<?xml version="1.0" encoding="UTF-8"?>
<svg xmlns="http://www.w3.org/2000/svg" viewBox="0 0 1600 800" width="1600" height="800">
<rect width="100%" height="100%" fill="white"/>
<text x="60" y="24" font-family="sans-serif" font-size="18" fill="#222">base-offset map: sg_te</text>
<text x="60" y="44" font-family="sans-serif" font-size="12" fill="#555">base verts = 29,  offset verts = 19 (raw 0 / resampled 19),  pairs = 29,  bbox y=[0.541213, 1.425]  z=[-0.0851905, 0.133308]</text>
<g stroke="#888" stroke-width="0.7" opacity="0.7">
<line x1="65.6214" y1="582.95" x2="63.0907" y2="547.025" />
<line x1="164.456" y1="575.988" x2="161.8" y2="540.072" />
<line x1="330.874" y1="563.094" x2="327.988" y2="527.196" />
<line x1="493.662" y1="549.524" x2="490.582" y2="513.642" />
<line x1="650.85" y1="535.645" x2="647.602" y2="499.778" />
<line x1="800.518" y1="521.771" x2="797.122" y2="485.917" />
<line x1="940.812" y1="508.201" x2="937.276" y2="472.361" />
<line x1="1069.97" y1="495.208" x2="1066.29" y2="459.382" />
<line x1="1186.31" y1="483.038" x2="1182.49" y2="447.228" />
<line x1="1288.29" y1="471.911" x2="1182.49" y2="447.228" />
<line x1="1374.46" y1="461.923" x2="1182.49" y2="447.228" />
<line x1="1443.83" y1="453.09" x2="1182.49" y2="447.228" />
<line x1="1495.68" y1="446.02" x2="1182.49" y2="447.228" />
<line x1="1528.56" y1="441.704" x2="1182.49" y2="447.228" />
<line x1="1540" y1="440.289" x2="1182.49" y2="447.228" />
<line x1="1527.9" y1="439.747" x2="1182.49" y2="447.228" />
<line x1="1492.76" y1="437.101" x2="1182.49" y2="447.228" />
<line x1="1437.04" y1="431.206" x2="1182.49" y2="447.228" />
<line x1="1362.5" y1="422.599" x2="1182.49" y2="447.228" />
<line x1="1269.9" y1="411.438" x2="1227.98" y2="442.264" />
<line x1="1160.55" y1="397.101" x2="1155.87" y2="432.81" />
<line x1="1036.58" y1="379.301" x2="1031.46" y2="414.95" />
<line x1="900.278" y1="358.195" x2="894.448" y2="393.734" />
<line x1="754.011" y1="334.199" x2="748.181" y2="369.738" />
<line x1="600.163" y1="307.973" x2="594.005" y2="343.457" />
<line x1="441.067" y1="280.363" x2="434.916" y2="315.848" />
<line x1="278.954" y1="252.35" x2="272.907" y2="287.853" />
<line x1="115.917" y1="224.998" x2="110.127" y2="260.544" />
<line x1="65.6214" y1="217.05" x2="60" y2="252.622" />
</g>
<polyline fill="none" stroke="#1f77b4" stroke-width="1.4" points="65.6214,582.95 164.456,575.988 330.874,563.094 493.662,549.524 650.85,535.645 800.518,521.771 940.812,508.201 1069.97,495.208 1186.31,483.038 1288.29,471.911 1374.46,461.923 1443.83,453.09 1495.68,446.02 1528.56,441.704 1540,440.289 1527.9,439.747 1492.76,437.101 1437.04,431.206 1362.5,422.599 1269.9,411.438 1160.55,397.101 1036.58,379.301 900.278,358.195 754.011,334.199 600.163,307.973 441.067,280.363 278.954,252.35 115.917,224.998 65.6214,217.05 " />
<polyline fill="none" stroke="#ff7f0e" stroke-width="1.4" points="63.0907,547.025 161.8,540.072 327.988,527.196 490.582,513.642 647.602,499.778 797.122,485.917 937.276,472.361 1066.29,459.382 1182.49,447.228 1227.98,442.264 1155.87,432.81 1031.46,414.95 894.448,393.734 748.181,369.738 594.005,343.457 434.916,315.848 272.907,287.853 110.127,260.544 60,252.622 " />
<circle cx="65.6214" cy="582.95" r="3" fill="#1f77b4" stroke="#0b3d61" stroke-width="0.5" />
<text x="69.6214" y="578.95" font-family="sans-serif" font-size="10" fill="#0b3d61">b0</text>
<circle cx="164.456" cy="575.988" r="3" fill="#1f77b4" stroke="#0b3d61" stroke-width="0.5" />
<text x="168.456" y="571.988" font-family="sans-serif" font-size="10" fill="#0b3d61">b1</text>
<circle cx="330.874" cy="563.094" r="3" fill="#1f77b4" stroke="#0b3d61" stroke-width="0.5" />
<text x="334.874" y="559.094" font-family="sans-serif" font-size="10" fill="#0b3d61">b2</text>
<circle cx="493.662" cy="549.524" r="3" fill="#1f77b4" stroke="#0b3d61" stroke-width="0.5" />
<text x="497.662" y="545.524" font-family="sans-serif" font-size="10" fill="#0b3d61">b3</text>
<circle cx="650.85" cy="535.645" r="3" fill="#1f77b4" stroke="#0b3d61" stroke-width="0.5" />
<text x="654.85" y="531.645" font-family="sans-serif" font-size="10" fill="#0b3d61">b4</text>
<circle cx="800.518" cy="521.771" r="3" fill="#1f77b4" stroke="#0b3d61" stroke-width="0.5" />
<text x="804.518" y="517.771" font-family="sans-serif" font-size="10" fill="#0b3d61">b5</text>
<circle cx="940.812" cy="508.201" r="3" fill="#1f77b4" stroke="#0b3d61" stroke-width="0.5" />
<text x="944.812" y="504.201" font-family="sans-serif" font-size="10" fill="#0b3d61">b6</text>
<circle cx="1069.97" cy="495.208" r="3" fill="#1f77b4" stroke="#0b3d61" stroke-width="0.5" />
<text x="1073.97" y="491.208" font-family="sans-serif" font-size="10" fill="#0b3d61">b7</text>
<circle cx="1186.31" cy="483.038" r="3" fill="#1f77b4" stroke="#0b3d61" stroke-width="0.5" />
<text x="1190.31" y="479.038" font-family="sans-serif" font-size="10" fill="#0b3d61">b8</text>
<circle cx="1288.29" cy="471.911" r="3" fill="#1f77b4" stroke="#0b3d61" stroke-width="0.5" />
<text x="1292.29" y="467.911" font-family="sans-serif" font-size="10" fill="#0b3d61">b9</text>
<circle cx="1374.46" cy="461.923" r="3" fill="#1f77b4" stroke="#0b3d61" stroke-width="0.5" />
<text x="1378.46" y="457.923" font-family="sans-serif" font-size="10" fill="#0b3d61">b10</text>
<circle cx="1443.83" cy="453.09" r="3" fill="#1f77b4" stroke="#0b3d61" stroke-width="0.5" />
<text x="1447.83" y="449.09" font-family="sans-serif" font-size="10" fill="#0b3d61">b11</text>
<circle cx="1495.68" cy="446.02" r="3" fill="#1f77b4" stroke="#0b3d61" stroke-width="0.5" />
<text x="1499.68" y="442.02" font-family="sans-serif" font-size="10" fill="#0b3d61">b12</text>
<circle cx="1528.56" cy="441.704" r="3" fill="#1f77b4" stroke="#0b3d61" stroke-width="0.5" />
<text x="1532.56" y="437.704" font-family="sans-serif" font-size="10" fill="#0b3d61">b13</text>
<circle cx="1540" cy="440.289" r="3" fill="#1f77b4" stroke="#0b3d61" stroke-width="0.5" />
<text x="1544" y="436.289" font-family="sans-serif" font-size="10" fill="#0b3d61">b14</text>
<circle cx="1527.9" cy="439.747" r="3" fill="#1f77b4" stroke="#0b3d61" stroke-width="0.5" />
<text x="1531.9" y="435.747" font-family="sans-serif" font-size="10" fill="#0b3d61">b15</text>
<circle cx="1492.76" cy="437.101" r="3" fill="#1f77b4" stroke="#0b3d61" stroke-width="0.5" />
<text x="1496.76" y="433.101" font-family="sans-serif" font-size="10" fill="#0b3d61">b16</text>
<circle cx="1437.04" cy="431.206" r="3" fill="#1f77b4" stroke="#0b3d61" stroke-width="0.5" />
<text x="1441.04" y="427.206" font-family="sans-serif" font-size="10" fill="#0b3d61">b17</text>
<circle cx="1362.5" cy="422.599" r="3" fill="#1f77b4" stroke="#0b3d61" stroke-width="0.5" />
<text x="1366.5" y="418.599" font-family="sans-serif" font-size="10" fill="#0b3d61">b18</text>
<circle cx="1269.9" cy="411.438" r="3" fill="#1f77b4" stroke="#0b3d61" stroke-width="0.5" />
<text x="1273.9" y="407.438" font-family="sans-serif" font-size="10" fill="#0b3d61">b19</text>
<circle cx="1160.55" cy="397.101" r="3" fill="#1f77b4" stroke="#0b3d61" stroke-width="0.5" />
<text x="1164.55" y="393.101" font-family="sans-serif" font-size="10" fill="#0b3d61">b20</text>
<circle cx="1036.58" cy="379.301" r="3" fill="#1f77b4" stroke="#0b3d61" stroke-width="0.5" />
<text x="1040.58" y="375.301" font-family="sans-serif" font-size="10" fill="#0b3d61">b21</text>
<circle cx="900.278" cy="358.195" r="3" fill="#1f77b4" stroke="#0b3d61" stroke-width="0.5" />
<text x="904.278" y="354.195" font-family="sans-serif" font-size="10" fill="#0b3d61">b22</text>
<circle cx="754.011" cy="334.199" r="3" fill="#1f77b4" stroke="#0b3d61" stroke-width="0.5" />
<text x="758.011" y="330.199" font-family="sans-serif" font-size="10" fill="#0b3d61">b23</text>
<circle cx="600.163" cy="307.973" r="3" fill="#1f77b4" stroke="#0b3d61" stroke-width="0.5" />
<text x="604.163" y="303.973" font-family="sans-serif" font-size="10" fill="#0b3d61">b24</text>
<circle cx="441.067" cy="280.363" r="3" fill="#1f77b4" stroke="#0b3d61" stroke-width="0.5" />
<text x="445.067" y="276.363" font-family="sans-serif" font-size="10" fill="#0b3d61">b25</text>
<circle cx="278.954" cy="252.35" r="3" fill="#1f77b4" stroke="#0b3d61" stroke-width="0.5" />
<text x="282.954" y="248.35" font-family="sans-serif" font-size="10" fill="#0b3d61">b26</text>
<circle cx="115.917" cy="224.998" r="3" fill="#1f77b4" stroke="#0b3d61" stroke-width="0.5" />
<text x="119.917" y="220.998" font-family="sans-serif" font-size="10" fill="#0b3d61">b27</text>
<circle cx="65.6214" cy="217.05" r="3" fill="#1f77b4" stroke="#0b3d61" stroke-width="0.5" />
<text x="69.6214" y="213.05" font-family="sans-serif" font-size="10" fill="#0b3d61">b28</text>
<rect x="59.0907" y="543.025" width="8" height="8" fill="white" stroke="#7a3d05" stroke-width="1.2" />
<text x="67.0907" y="559.025" font-family="sans-serif" font-size="10" fill="#7a3d05">o0</text>
<rect x="157.8" y="536.072" width="8" height="8" fill="white" stroke="#7a3d05" stroke-width="1.2" />
<text x="165.8" y="552.072" font-family="sans-serif" font-size="10" fill="#7a3d05">o1</text>
<rect x="323.988" y="523.196" width="8" height="8" fill="white" stroke="#7a3d05" stroke-width="1.2" />
<text x="331.988" y="539.196" font-family="sans-serif" font-size="10" fill="#7a3d05">o2</text>
<rect x="486.582" y="509.642" width="8" height="8" fill="white" stroke="#7a3d05" stroke-width="1.2" />
<text x="494.582" y="525.642" font-family="sans-serif" font-size="10" fill="#7a3d05">o3</text>
<rect x="643.602" y="495.778" width="8" height="8" fill="white" stroke="#7a3d05" stroke-width="1.2" />
<text x="651.602" y="511.778" font-family="sans-serif" font-size="10" fill="#7a3d05">o4</text>
<rect x="793.122" y="481.917" width="8" height="8" fill="white" stroke="#7a3d05" stroke-width="1.2" />
<text x="801.122" y="497.917" font-family="sans-serif" font-size="10" fill="#7a3d05">o5</text>
<rect x="933.276" y="468.361" width="8" height="8" fill="white" stroke="#7a3d05" stroke-width="1.2" />
<text x="941.276" y="484.361" font-family="sans-serif" font-size="10" fill="#7a3d05">o6</text>
<rect x="1062.29" y="455.382" width="8" height="8" fill="white" stroke="#7a3d05" stroke-width="1.2" />
<text x="1070.29" y="471.382" font-family="sans-serif" font-size="10" fill="#7a3d05">o7</text>
<rect x="1178.49" y="443.228" width="8" height="8" fill="white" stroke="#7a3d05" stroke-width="1.2" />
<text x="1186.49" y="459.228" font-family="sans-serif" font-size="10" fill="#7a3d05">o8</text>
<rect x="1223.98" y="438.264" width="8" height="8" fill="white" stroke="#7a3d05" stroke-width="1.2" />
<text x="1231.98" y="454.264" font-family="sans-serif" font-size="10" fill="#7a3d05">o9</text>
<rect x="1151.87" y="428.81" width="8" height="8" fill="white" stroke="#7a3d05" stroke-width="1.2" />
<text x="1159.87" y="444.81" font-family="sans-serif" font-size="10" fill="#7a3d05">o10</text>
<rect x="1027.46" y="410.95" width="8" height="8" fill="white" stroke="#7a3d05" stroke-width="1.2" />
<text x="1035.46" y="426.95" font-family="sans-serif" font-size="10" fill="#7a3d05">o11</text>
<rect x="890.448" y="389.734" width="8" height="8" fill="white" stroke="#7a3d05" stroke-width="1.2" />
<text x="898.448" y="405.734" font-family="sans-serif" font-size="10" fill="#7a3d05">o12</text>
<rect x="744.181" y="365.738" width="8" height="8" fill="white" stroke="#7a3d05" stroke-width="1.2" />
<text x="752.181" y="381.738" font-family="sans-serif" font-size="10" fill="#7a3d05">o13</text>
<rect x="590.005" y="339.457" width="8" height="8" fill="white" stroke="#7a3d05" stroke-width="1.2" />
<text x="598.005" y="355.457" font-family="sans-serif" font-size="10" fill="#7a3d05">o14</text>
<rect x="430.916" y="311.848" width="8" height="8" fill="white" stroke="#7a3d05" stroke-width="1.2" />
<text x="438.916" y="327.848" font-family="sans-serif" font-size="10" fill="#7a3d05">o15</text>
<rect x="268.907" y="283.853" width="8" height="8" fill="white" stroke="#7a3d05" stroke-width="1.2" />
<text x="276.907" y="299.853" font-family="sans-serif" font-size="10" fill="#7a3d05">o16</text>
<rect x="106.127" y="256.544" width="8" height="8" fill="white" stroke="#7a3d05" stroke-width="1.2" />
<text x="114.127" y="272.544" font-family="sans-serif" font-size="10" fill="#7a3d05">o17</text>
<rect x="56" y="248.622" width="8" height="8" fill="white" stroke="#7a3d05" stroke-width="1.2" />
<text x="64" y="264.622" font-family="sans-serif" font-size="10" fill="#7a3d05">o18</text>
<g font-family="sans-serif" font-size="12">
<rect x="1350" y="12" width="230" height="122" fill="#fafafa" stroke="#ccc"/>
<line x1="1360" y1="30" x2="1384" y2="30" stroke="#1f77b4" stroke-width="2"/>
<circle cx="1372" cy="30" r="3" fill="#1f77b4" stroke="#0b3d61" stroke-width="0.5" />
<text x="1392" y="34" font-family="sans-serif" font-size="12" fill="#0b3d61">base vertex (b_i)</text>
<line x1="1360" y1="50" x2="1384" y2="50" stroke="#ff7f0e" stroke-width="2"/>
<text x="1392" y="54" font-family="sans-serif" font-size="12" fill="#7a3d05">offset curve</text>
<circle cx="1372" cy="70" r="3" fill="#ff7f0e" stroke="#7a3d05" stroke-width="0.5" />
<text x="1392" y="74" font-family="sans-serif" font-size="12" fill="#7a3d05">offset: raw Clipper2</text>
<rect x="1368" y="86" width="8" height="8" fill="white" stroke="#7a3d05" stroke-width="1.2" />
<text x="1392" y="94" font-family="sans-serif" font-size="12" fill="#7a3d05">offset: base-vertex resample</text>
<line x1="1360" y1="110" x2="1384" y2="110" stroke="#888" stroke-width="0.7"/>
<text x="1392" y="114" font-family="sans-serif" font-size="12" fill="#444">pair (b_i, o_j)</text>
</g>
</svg>
