<?xml version="1.0" encoding="UTF-8"?>
<svg xmlns="http://www.w3.org/2000/svg" viewBox="0 0 1600 800" width="1600" height="800">
<rect width="100%" height="100%" fill="white"/>
<text x="60" y="24" font-family="sans-serif" font-size="18" fill="#222">base-offset map: sgm_blk_1_2</text>
<text x="60" y="44" font-family="sans-serif" font-size="12" fill="#555">base verts = 16,  offset verts = 16 (raw 16 / resampled 0),  pre-resample raw = 16,  pairs = 16,  bbox y=[-1.61706, 0.617479]  z=[0.80958, 2]</text>
<g stroke="#888" stroke-width="0.7" opacity="0.7">
<line x1="1438.22" y1="116.91" x2="1335.15" y2="443.784" />
<line x1="1381.18" y1="98.9282" x2="1292.39" y2="430.301" />
<line x1="1283.88" y1="77.3564" x2="1224.31" y2="415.207" />
<line x1="1185.07" y1="64.3474" x2="1155.17" y2="406.105" />
<line x1="1085.49" y1="60" x2="1085.49" y2="403.063" />
<line x1="985.923" y1="64.3474" x2="1015.82" y2="406.105" />
<line x1="887.109" y1="77.3564" x2="946.681" y2="415.207" />
<line x1="789.805" y1="98.9282" x2="878.596" y2="430.301" />
<line x1="694.752" y1="128.898" x2="812.086" y2="451.272" />
<line x1="602.672" y1="167.039" x2="747.657" y2="477.96" />
<line x1="514.267" y1="213.06" x2="685.798" y2="510.161" />
<line x1="430.209" y1="266.611" x2="626.982" y2="547.631" />
<line x1="351.139" y1="327.284" x2="571.655" y2="590.085" />
<line x1="277.657" y1="394.617" x2="520.239" y2="637.199" />
<line x1="210.323" y1="468.099" x2="473.125" y2="688.615" />
<line x1="161.785" y1="531.355" x2="433.696" y2="740" />
</g>
<polyline fill="none" stroke="#1f77b4" stroke-width="1.4" points="1438.22,116.91 1381.18,98.9282 1283.88,77.3564 1185.07,64.3474 1085.49,60 985.923,64.3474 887.109,77.3564 789.805,98.9282 694.752,128.898 602.672,167.039 514.267,213.06 430.209,266.611 351.139,327.284 277.657,394.617 210.323,468.099 161.785,531.355 " />
<polyline fill="none" stroke="#ff7f0e" stroke-width="1.4" points="1335.15,443.784 1292.39,430.301 1224.31,415.207 1155.17,406.105 1085.49,403.063 1015.82,406.105 946.681,415.207 878.596,430.301 812.086,451.272 747.657,477.96 685.798,510.161 626.982,547.631 571.655,590.085 520.239,637.199 473.125,688.615 433.696,740 " />
<circle cx="1438.22" cy="116.91" r="3" fill="#1f77b4" stroke="#0b3d61" stroke-width="0.5" />
<text x="1442.22" y="112.91" font-family="sans-serif" font-size="10" fill="#0b3d61">b0</text>
<circle cx="1381.18" cy="98.9282" r="3" fill="#1f77b4" stroke="#0b3d61" stroke-width="0.5" />
<text x="1385.18" y="94.9282" font-family="sans-serif" font-size="10" fill="#0b3d61">b1</text>
<circle cx="1283.88" cy="77.3564" r="3" fill="#1f77b4" stroke="#0b3d61" stroke-width="0.5" />
<text x="1287.88" y="73.3564" font-family="sans-serif" font-size="10" fill="#0b3d61">b2</text>
<circle cx="1185.07" cy="64.3474" r="3" fill="#1f77b4" stroke="#0b3d61" stroke-width="0.5" />
<text x="1189.07" y="60.3474" font-family="sans-serif" font-size="10" fill="#0b3d61">b3</text>
<circle cx="1085.49" cy="60" r="3" fill="#1f77b4" stroke="#0b3d61" stroke-width="0.5" />
<text x="1089.49" y="56" font-family="sans-serif" font-size="10" fill="#0b3d61">b4</text>
<circle cx="985.923" cy="64.3474" r="3" fill="#1f77b4" stroke="#0b3d61" stroke-width="0.5" />
<text x="989.923" y="60.3474" font-family="sans-serif" font-size="10" fill="#0b3d61">b5</text>
<circle cx="887.109" cy="77.3564" r="3" fill="#1f77b4" stroke="#0b3d61" stroke-width="0.5" />
<text x="891.109" y="73.3564" font-family="sans-serif" font-size="10" fill="#0b3d61">b6</text>
<circle cx="789.805" cy="98.9282" r="3" fill="#1f77b4" stroke="#0b3d61" stroke-width="0.5" />
<text x="793.805" y="94.9282" font-family="sans-serif" font-size="10" fill="#0b3d61">b7</text>
<circle cx="694.752" cy="128.898" r="3" fill="#1f77b4" stroke="#0b3d61" stroke-width="0.5" />
<text x="698.752" y="124.898" font-family="sans-serif" font-size="10" fill="#0b3d61">b8</text>
<circle cx="602.672" cy="167.039" r="3" fill="#1f77b4" stroke="#0b3d61" stroke-width="0.5" />
<text x="606.672" y="163.039" font-family="sans-serif" font-size="10" fill="#0b3d61">b9</text>
<circle cx="514.267" cy="213.06" r="3" fill="#1f77b4" stroke="#0b3d61" stroke-width="0.5" />
<text x="518.267" y="209.06" font-family="sans-serif" font-size="10" fill="#0b3d61">b10</text>
<circle cx="430.209" cy="266.611" r="3" fill="#1f77b4" stroke="#0b3d61" stroke-width="0.5" />
<text x="434.209" y="262.611" font-family="sans-serif" font-size="10" fill="#0b3d61">b11</text>
<circle cx="351.139" cy="327.284" r="3" fill="#1f77b4" stroke="#0b3d61" stroke-width="0.5" />
<text x="355.139" y="323.284" font-family="sans-serif" font-size="10" fill="#0b3d61">b12</text>
<circle cx="277.657" cy="394.617" r="3" fill="#1f77b4" stroke="#0b3d61" stroke-width="0.5" />
<text x="281.657" y="390.617" font-family="sans-serif" font-size="10" fill="#0b3d61">b13</text>
<circle cx="210.323" cy="468.099" r="3" fill="#1f77b4" stroke="#0b3d61" stroke-width="0.5" />
<text x="214.323" y="464.099" font-family="sans-serif" font-size="10" fill="#0b3d61">b14</text>
<circle cx="161.785" cy="531.355" r="3" fill="#1f77b4" stroke="#0b3d61" stroke-width="0.5" />
<text x="165.785" y="527.355" font-family="sans-serif" font-size="10" fill="#0b3d61">b15</text>
<circle cx="1335.15" cy="443.784" r="3" fill="#ff7f0e" stroke="#7a3d05" stroke-width="0.5" />
<text x="1339.15" y="455.784" font-family="sans-serif" font-size="10" fill="#7a3d05">o0</text>
<circle cx="1292.39" cy="430.301" r="3" fill="#ff7f0e" stroke="#7a3d05" stroke-width="0.5" />
<text x="1296.39" y="442.301" font-family="sans-serif" font-size="10" fill="#7a3d05">o1</text>
<circle cx="1224.31" cy="415.207" r="3" fill="#ff7f0e" stroke="#7a3d05" stroke-width="0.5" />
<text x="1228.31" y="427.207" font-family="sans-serif" font-size="10" fill="#7a3d05">o2</text>
<circle cx="1155.17" cy="406.105" r="3" fill="#ff7f0e" stroke="#7a3d05" stroke-width="0.5" />
<text x="1159.17" y="418.105" font-family="sans-serif" font-size="10" fill="#7a3d05">o3</text>
<circle cx="1085.49" cy="403.063" r="3" fill="#ff7f0e" stroke="#7a3d05" stroke-width="0.5" />
<text x="1089.49" y="415.063" font-family="sans-serif" font-size="10" fill="#7a3d05">o4</text>
<circle cx="1015.82" cy="406.105" r="3" fill="#ff7f0e" stroke="#7a3d05" stroke-width="0.5" />
<text x="1019.82" y="418.105" font-family="sans-serif" font-size="10" fill="#7a3d05">o5</text>
<circle cx="946.681" cy="415.207" r="3" fill="#ff7f0e" stroke="#7a3d05" stroke-width="0.5" />
<text x="950.681" y="427.207" font-family="sans-serif" font-size="10" fill="#7a3d05">o6</text>
<circle cx="878.596" cy="430.301" r="3" fill="#ff7f0e" stroke="#7a3d05" stroke-width="0.5" />
<text x="882.596" y="442.301" font-family="sans-serif" font-size="10" fill="#7a3d05">o7</text>
<circle cx="812.086" cy="451.272" r="3" fill="#ff7f0e" stroke="#7a3d05" stroke-width="0.5" />
<text x="816.086" y="463.272" font-family="sans-serif" font-size="10" fill="#7a3d05">o8</text>
<circle cx="747.657" cy="477.96" r="3" fill="#ff7f0e" stroke="#7a3d05" stroke-width="0.5" />
<text x="751.657" y="489.96" font-family="sans-serif" font-size="10" fill="#7a3d05">o9</text>
<circle cx="685.798" cy="510.161" r="3" fill="#ff7f0e" stroke="#7a3d05" stroke-width="0.5" />
<text x="689.798" y="522.161" font-family="sans-serif" font-size="10" fill="#7a3d05">o10</text>
<circle cx="626.982" cy="547.631" r="3" fill="#ff7f0e" stroke="#7a3d05" stroke-width="0.5" />
<text x="630.982" y="559.631" font-family="sans-serif" font-size="10" fill="#7a3d05">o11</text>
<circle cx="571.655" cy="590.085" r="3" fill="#ff7f0e" stroke="#7a3d05" stroke-width="0.5" />
<text x="575.655" y="602.085" font-family="sans-serif" font-size="10" fill="#7a3d05">o12</text>
<circle cx="520.239" cy="637.199" r="3" fill="#ff7f0e" stroke="#7a3d05" stroke-width="0.5" />
<text x="524.239" y="649.199" font-family="sans-serif" font-size="10" fill="#7a3d05">o13</text>
<circle cx="473.125" cy="688.615" r="3" fill="#ff7f0e" stroke="#7a3d05" stroke-width="0.5" />
<text x="477.125" y="700.615" font-family="sans-serif" font-size="10" fill="#7a3d05">o14</text>
<circle cx="433.696" cy="740" r="3" fill="#ff7f0e" stroke="#7a3d05" stroke-width="0.5" />
<text x="437.696" y="752" font-family="sans-serif" font-size="10" fill="#7a3d05">o15</text>
<circle cx="1335.15" cy="443.784" r="1.8" fill="#e41a1c" stroke="#5a0606" stroke-width="0.5" />
<circle cx="1292.39" cy="430.301" r="1.8" fill="#e41a1c" stroke="#5a0606" stroke-width="0.5" />
<circle cx="1224.31" cy="415.207" r="1.8" fill="#e41a1c" stroke="#5a0606" stroke-width="0.5" />
<circle cx="1155.17" cy="406.105" r="1.8" fill="#e41a1c" stroke="#5a0606" stroke-width="0.5" />
<circle cx="1085.49" cy="403.063" r="1.8" fill="#e41a1c" stroke="#5a0606" stroke-width="0.5" />
<circle cx="1015.82" cy="406.105" r="1.8" fill="#e41a1c" stroke="#5a0606" stroke-width="0.5" />
<circle cx="946.681" cy="415.207" r="1.8" fill="#e41a1c" stroke="#5a0606" stroke-width="0.5" />
<circle cx="878.596" cy="430.301" r="1.8" fill="#e41a1c" stroke="#5a0606" stroke-width="0.5" />
<circle cx="812.086" cy="451.272" r="1.8" fill="#e41a1c" stroke="#5a0606" stroke-width="0.5" />
<circle cx="747.657" cy="477.96" r="1.8" fill="#e41a1c" stroke="#5a0606" stroke-width="0.5" />
<circle cx="685.798" cy="510.161" r="1.8" fill="#e41a1c" stroke="#5a0606" stroke-width="0.5" />
<circle cx="626.982" cy="547.631" r="1.8" fill="#e41a1c" stroke="#5a0606" stroke-width="0.5" />
<circle cx="571.655" cy="590.085" r="1.8" fill="#e41a1c" stroke="#5a0606" stroke-width="0.5" />
<circle cx="520.239" cy="637.199" r="1.8" fill="#e41a1c" stroke="#5a0606" stroke-width="0.5" />
<circle cx="473.125" cy="688.615" r="1.8" fill="#e41a1c" stroke="#5a0606" stroke-width="0.5" />
<circle cx="433.696" cy="740" r="1.8" fill="#e41a1c" stroke="#5a0606" stroke-width="0.5" />
<g font-family="sans-serif" font-size="12">
<rect x="1350" y="12" width="230" height="142" fill="#fafafa" stroke="#ccc"/>
<line x1="1360" y1="30" x2="1384" y2="30" stroke="#1f77b4" stroke-width="2"/>
<circle cx="1372" cy="30" r="3" fill="#1f77b4" stroke="#0b3d61" stroke-width="0.5" />
<text x="1392" y="34" font-family="sans-serif" font-size="12" fill="#0b3d61">base vertex (b_i)</text>
<line x1="1360" y1="50" x2="1384" y2="50" stroke="#ff7f0e" stroke-width="2"/>
<text x="1392" y="54" font-family="sans-serif" font-size="12" fill="#7a3d05">offset curve</text>
<circle cx="1372" cy="70" r="3" fill="#ff7f0e" stroke="#7a3d05" stroke-width="0.5" />
<text x="1392" y="74" font-family="sans-serif" font-size="12" fill="#7a3d05">offset: raw Clipper2</text>
<rect x="1368" y="86" width="8" height="8" fill="white" stroke="#7a3d05" stroke-width="1.2" />
<text x="1392" y="94" font-family="sans-serif" font-size="12" fill="#7a3d05">offset: base-vertex resample</text>
<line x1="1360" y1="110" x2="1384" y2="110" stroke="#888" stroke-width="0.7"/>
<text x="1392" y="114" font-family="sans-serif" font-size="12" fill="#444">pair (b_i, o_j)</text>
<circle cx="1372" cy="130" r="1.8" fill="#e41a1c" stroke="#5a0606" stroke-width="0.5" />
<text x="1392" y="134" font-family="sans-serif" font-size="12" fill="#5a0606">raw vertex (pre-resample)</text>
</g>
</svg>
