<?xml version="1.0" encoding="UTF-8"?>
<svg xmlns="http://www.w3.org/2000/svg" viewBox="0 0 1600 800" width="1600" height="800">
<rect width="100%" height="100%" fill="white"/>
<text x="60" y="24" font-family="sans-serif" font-size="18" fill="#222">base-offset map: sgm_blk_1_4</text>
<text x="60" y="44" font-family="sans-serif" font-size="12" fill="#555">base verts = 19,  offset verts = 19 (raw 19 / resampled 0),  pre-resample raw = 19,  pairs = 19,  bbox y=[-2, -0.0959958]  z=[-1.99239, 0.174311]</text>
<g stroke="#888" stroke-width="0.7" opacity="0.7">
<line x1="503.611" y1="60" x2="691.378" y2="76.4275" />
<line x1="501.223" y1="114.706" x2="689.707" y2="114.706" />
<line x1="503.611" y1="169.412" x2="691.378" y2="152.985" />
<line x1="510.758" y1="223.702" x2="696.379" y2="190.972" />
<line x1="522.61" y1="277.162" x2="704.672" y2="228.379" />
<line x1="539.076" y1="329.386" x2="716.194" y2="264.921" />
<line x1="560.031" y1="379.976" x2="730.856" y2="300.319" />
<line x1="585.316" y1="428.547" x2="748.548" y2="334.305" />
<line x1="614.738" y1="474.73" x2="769.135" y2="366.62" />
<line x1="648.072" y1="518.173" x2="792.46" y2="397.017" />
<line x1="685.066" y1="558.545" x2="818.345" y2="425.266" />
<line x1="725.438" y1="595.539" x2="846.594" y2="451.152" />
<line x1="768.881" y1="628.873" x2="876.991" y2="474.476" />
<line x1="815.064" y1="658.295" x2="909.306" y2="495.063" />
<line x1="863.635" y1="683.58" x2="943.292" y2="512.755" />
<line x1="914.225" y1="704.535" x2="978.69" y2="527.418" />
<line x1="966.449" y1="721.001" x2="1015.23" y2="538.939" />
<line x1="1019.91" y1="732.853" x2="1052.64" y2="547.232" />
<line x1="1074.2" y1="740" x2="1090.63" y2="552.233" />
</g>
<polyline fill="none" stroke="#1f77b4" stroke-width="1.4" points="503.611,60 501.223,114.706 503.611,169.412 510.758,223.702 522.61,277.162 539.076,329.386 560.031,379.976 585.316,428.547 614.738,474.73 648.072,518.173 685.066,558.545 725.438,595.539 768.881,628.873 815.064,658.295 863.635,683.58 914.225,704.535 966.449,721.001 1019.91,732.853 1074.2,740 " />
<polyline fill="none" stroke="#ff7f0e" stroke-width="1.4" points="691.378,76.4275 689.707,114.706 691.378,152.985 696.379,190.972 704.672,228.379 716.194,264.921 730.856,300.319 748.548,334.305 769.135,366.62 792.46,397.017 818.345,425.266 846.594,451.152 876.991,474.476 909.306,495.063 943.292,512.755 978.69,527.418 1015.23,538.939 1052.64,547.232 1090.63,552.233 " />
<circle cx="503.611" cy="60" r="3" fill="#1f77b4" stroke="#0b3d61" stroke-width="0.5" />
<text x="507.611" y="56" font-family="sans-serif" font-size="10" fill="#0b3d61">b0</text>
<circle cx="501.223" cy="114.706" r="3" fill="#1f77b4" stroke="#0b3d61" stroke-width="0.5" />
<text x="505.223" y="110.706" font-family="sans-serif" font-size="10" fill="#0b3d61">b1</text>
<circle cx="503.611" cy="169.412" r="3" fill="#1f77b4" stroke="#0b3d61" stroke-width="0.5" />
<text x="507.611" y="165.412" font-family="sans-serif" font-size="10" fill="#0b3d61">b2</text>
<circle cx="510.758" cy="223.702" r="3" fill="#1f77b4" stroke="#0b3d61" stroke-width="0.5" />
<text x="514.758" y="219.702" font-family="sans-serif" font-size="10" fill="#0b3d61">b3</text>
<circle cx="522.61" cy="277.162" r="3" fill="#1f77b4" stroke="#0b3d61" stroke-width="0.5" />
<text x="526.61" y="273.162" font-family="sans-serif" font-size="10" fill="#0b3d61">b4</text>
<circle cx="539.076" cy="329.386" r="3" fill="#1f77b4" stroke="#0b3d61" stroke-width="0.5" />
<text x="543.076" y="325.386" font-family="sans-serif" font-size="10" fill="#0b3d61">b5</text>
<circle cx="560.031" cy="379.976" r="3" fill="#1f77b4" stroke="#0b3d61" stroke-width="0.5" />
<text x="564.031" y="375.976" font-family="sans-serif" font-size="10" fill="#0b3d61">b6</text>
<circle cx="585.316" cy="428.547" r="3" fill="#1f77b4" stroke="#0b3d61" stroke-width="0.5" />
<text x="589.316" y="424.547" font-family="sans-serif" font-size="10" fill="#0b3d61">b7</text>
<circle cx="614.738" cy="474.73" r="3" fill="#1f77b4" stroke="#0b3d61" stroke-width="0.5" />
<text x="618.738" y="470.73" font-family="sans-serif" font-size="10" fill="#0b3d61">b8</text>
<circle cx="648.072" cy="518.173" r="3" fill="#1f77b4" stroke="#0b3d61" stroke-width="0.5" />
<text x="652.072" y="514.173" font-family="sans-serif" font-size="10" fill="#0b3d61">b9</text>
<circle cx="685.066" cy="558.545" r="3" fill="#1f77b4" stroke="#0b3d61" stroke-width="0.5" />
<text x="689.066" y="554.545" font-family="sans-serif" font-size="10" fill="#0b3d61">b10</text>
<circle cx="725.438" cy="595.539" r="3" fill="#1f77b4" stroke="#0b3d61" stroke-width="0.5" />
<text x="729.438" y="591.539" font-family="sans-serif" font-size="10" fill="#0b3d61">b11</text>
<circle cx="768.881" cy="628.873" r="3" fill="#1f77b4" stroke="#0b3d61" stroke-width="0.5" />
<text x="772.881" y="624.873" font-family="sans-serif" font-size="10" fill="#0b3d61">b12</text>
<circle cx="815.064" cy="658.295" r="3" fill="#1f77b4" stroke="#0b3d61" stroke-width="0.5" />
<text x="819.064" y="654.295" font-family="sans-serif" font-size="10" fill="#0b3d61">b13</text>
<circle cx="863.635" cy="683.58" r="3" fill="#1f77b4" stroke="#0b3d61" stroke-width="0.5" />
<text x="867.635" y="679.58" font-family="sans-serif" font-size="10" fill="#0b3d61">b14</text>
<circle cx="914.225" cy="704.535" r="3" fill="#1f77b4" stroke="#0b3d61" stroke-width="0.5" />
<text x="918.225" y="700.535" font-family="sans-serif" font-size="10" fill="#0b3d61">b15</text>
<circle cx="966.449" cy="721.001" r="3" fill="#1f77b4" stroke="#0b3d61" stroke-width="0.5" />
<text x="970.449" y="717.001" font-family="sans-serif" font-size="10" fill="#0b3d61">b16</text>
<circle cx="1019.91" cy="732.853" r="3" fill="#1f77b4" stroke="#0b3d61" stroke-width="0.5" />
<text x="1023.91" y="728.853" font-family="sans-serif" font-size="10" fill="#0b3d61">b17</text>
<circle cx="1074.2" cy="740" r="3" fill="#1f77b4" stroke="#0b3d61" stroke-width="0.5" />
<text x="1078.2" y="736" font-family="sans-serif" font-size="10" fill="#0b3d61">b18</text>
<circle cx="691.378" cy="76.4275" r="3" fill="#ff7f0e" stroke="#7a3d05" stroke-width="0.5" />
<text x="695.378" y="88.4275" font-family="sans-serif" font-size="10" fill="#7a3d05">o0</text>
<circle cx="689.707" cy="114.706" r="3" fill="#ff7f0e" stroke="#7a3d05" stroke-width="0.5" />
<text x="693.707" y="126.706" font-family="sans-serif" font-size="10" fill="#7a3d05">o1</text>
<circle cx="691.378" cy="152.985" r="3" fill="#ff7f0e" stroke="#7a3d05" stroke-width="0.5" />
<text x="695.378" y="164.985" font-family="sans-serif" font-size="10" fill="#7a3d05">o2</text>
<circle cx="696.379" cy="190.972" r="3" fill="#ff7f0e" stroke="#7a3d05" stroke-width="0.5" />
<text x="700.379" y="202.972" font-family="sans-serif" font-size="10" fill="#7a3d05">o3</text>
<circle cx="704.672" cy="228.379" r="3" fill="#ff7f0e" stroke="#7a3d05" stroke-width="0.5" />
<text x="708.672" y="240.379" font-family="sans-serif" font-size="10" fill="#7a3d05">o4</text>
<circle cx="716.194" cy="264.921" r="3" fill="#ff7f0e" stroke="#7a3d05" stroke-width="0.5" />
<text x="720.194" y="276.921" font-family="sans-serif" font-size="10" fill="#7a3d05">o5</text>
<circle cx="730.856" cy="300.319" r="3" fill="#ff7f0e" stroke="#7a3d05" stroke-width="0.5" />
<text x="734.856" y="312.319" font-family="sans-serif" font-size="10" fill="#7a3d05">o6</text>
<circle cx="748.548" cy="334.305" r="3" fill="#ff7f0e" stroke="#7a3d05" stroke-width="0.5" />
<text x="752.548" y="346.305" font-family="sans-serif" font-size="10" fill="#7a3d05">o7</text>
<circle cx="769.135" cy="366.62" r="3" fill="#ff7f0e" stroke="#7a3d05" stroke-width="0.5" />
<text x="773.135" y="378.62" font-family="sans-serif" font-size="10" fill="#7a3d05">o8</text>
<circle cx="792.46" cy="397.017" r="3" fill="#ff7f0e" stroke="#7a3d05" stroke-width="0.5" />
<text x="796.46" y="409.017" font-family="sans-serif" font-size="10" fill="#7a3d05">o9</text>
<circle cx="818.345" cy="425.266" r="3" fill="#ff7f0e" stroke="#7a3d05" stroke-width="0.5" />
<text x="822.345" y="437.266" font-family="sans-serif" font-size="10" fill="#7a3d05">o10</text>
<circle cx="846.594" cy="451.152" r="3" fill="#ff7f0e" stroke="#7a3d05" stroke-width="0.5" />
<text x="850.594" y="463.152" font-family="sans-serif" font-size="10" fill="#7a3d05">o11</text>
<circle cx="876.991" cy="474.476" r="3" fill="#ff7f0e" stroke="#7a3d05" stroke-width="0.5" />
<text x="880.991" y="486.476" font-family="sans-serif" font-size="10" fill="#7a3d05">o12</text>
<circle cx="909.306" cy="495.063" r="3" fill="#ff7f0e" stroke="#7a3d05" stroke-width="0.5" />
<text x="913.306" y="507.063" font-family="sans-serif" font-size="10" fill="#7a3d05">o13</text>
<circle cx="943.292" cy="512.755" r="3" fill="#ff7f0e" stroke="#7a3d05" stroke-width="0.5" />
<text x="947.292" y="524.755" font-family="sans-serif" font-size="10" fill="#7a3d05">o14</text>
<circle cx="978.69" cy="527.418" r="3" fill="#ff7f0e" stroke="#7a3d05" stroke-width="0.5" />
<text x="982.69" y="539.418" font-family="sans-serif" font-size="10" fill="#7a3d05">o15</text>
<circle cx="1015.23" cy="538.939" r="3" fill="#ff7f0e" stroke="#7a3d05" stroke-width="0.5" />
<text x="1019.23" y="550.939" font-family="sans-serif" font-size="10" fill="#7a3d05">o16</text>
<circle cx="1052.64" cy="547.232" r="3" fill="#ff7f0e" stroke="#7a3d05" stroke-width="0.5" />
<text x="1056.64" y="559.232" font-family="sans-serif" font-size="10" fill="#7a3d05">o17</text>
<circle cx="1090.63" cy="552.233" r="3" fill="#ff7f0e" stroke="#7a3d05" stroke-width="0.5" />
<text x="1094.63" y="564.233" font-family="sans-serif" font-size="10" fill="#7a3d05">o18</text>
<circle cx="691.737" cy="68.2137" r="1.8" fill="#e41a1c" stroke="#5a0606" stroke-width="0.5" />
<circle cx="689.707" cy="114.706" r="1.8" fill="#e41a1c" stroke="#5a0606" stroke-width="0.5" />
<circle cx="691.378" cy="152.985" r="1.8" fill="#e41a1c" stroke="#5a0606" stroke-width="0.5" />
<circle cx="696.379" cy="190.972" r="1.8" fill="#e41a1c" stroke="#5a0606" stroke-width="0.5" />
<circle cx="704.672" cy="228.379" r="1.8" fill="#e41a1c" stroke="#5a0606" stroke-width="0.5" />
<circle cx="716.194" cy="264.921" r="1.8" fill="#e41a1c" stroke="#5a0606" stroke-width="0.5" />
<circle cx="730.856" cy="300.319" r="1.8" fill="#e41a1c" stroke="#5a0606" stroke-width="0.5" />
<circle cx="748.548" cy="334.305" r="1.8" fill="#e41a1c" stroke="#5a0606" stroke-width="0.5" />
<circle cx="769.135" cy="366.62" r="1.8" fill="#e41a1c" stroke="#5a0606" stroke-width="0.5" />
<circle cx="792.46" cy="397.017" r="1.8" fill="#e41a1c" stroke="#5a0606" stroke-width="0.5" />
<circle cx="818.345" cy="425.266" r="1.8" fill="#e41a1c" stroke="#5a0606" stroke-width="0.5" />
<circle cx="846.594" cy="451.152" r="1.8" fill="#e41a1c" stroke="#5a0606" stroke-width="0.5" />
<circle cx="876.991" cy="474.476" r="1.8" fill="#e41a1c" stroke="#5a0606" stroke-width="0.5" />
<circle cx="909.306" cy="495.063" r="1.8" fill="#e41a1c" stroke="#5a0606" stroke-width="0.5" />
<circle cx="943.292" cy="512.755" r="1.8" fill="#e41a1c" stroke="#5a0606" stroke-width="0.5" />
<circle cx="978.69" cy="527.418" r="1.8" fill="#e41a1c" stroke="#5a0606" stroke-width="0.5" />
<circle cx="1015.23" cy="538.939" r="1.8" fill="#e41a1c" stroke="#5a0606" stroke-width="0.5" />
<circle cx="1052.64" cy="547.232" r="1.8" fill="#e41a1c" stroke="#5a0606" stroke-width="0.5" />
<circle cx="1098.78" cy="553.306" r="1.8" fill="#e41a1c" stroke="#5a0606" stroke-width="0.5" />
<g font-family="sans-serif" font-size="12">
<rect x="1350" y="12" width="230" height="142" fill="#fafafa" stroke="#ccc"/>
<line x1="1360" y1="30" x2="1384" y2="30" stroke="#1f77b4" stroke-width="2"/>
<circle cx="1372" cy="30" r="3" fill="#1f77b4" stroke="#0b3d61" stroke-width="0.5" />
<text x="1392" y="34" font-family="sans-serif" font-size="12" fill="#0b3d61">base vertex (b_i)</text>
<line x1="1360" y1="50" x2="1384" y2="50" stroke="#ff7f0e" stroke-width="2"/>
<text x="1392" y="54" font-family="sans-serif" font-size="12" fill="#7a3d05">offset curve</text>
<circle cx="1372" cy="70" r="3" fill="#ff7f0e" stroke="#7a3d05" stroke-width="0.5" />
<text x="1392" y="74" font-family="sans-serif" font-size="12" fill="#7a3d05">offset: raw Clipper2</text>
<rect x="1368" y="86" width="8" height="8" fill="white" stroke="#7a3d05" stroke-width="1.2" />
<text x="1392" y="94" font-family="sans-serif" font-size="12" fill="#7a3d05">offset: base-vertex resample</text>
<line x1="1360" y1="110" x2="1384" y2="110" stroke="#888" stroke-width="0.7"/>
<text x="1392" y="114" font-family="sans-serif" font-size="12" fill="#444">pair (b_i, o_j)</text>
<circle cx="1372" cy="130" r="1.8" fill="#e41a1c" stroke="#5a0606" stroke-width="0.5" />
<text x="1392" y="134" font-family="sans-serif" font-size="12" fill="#5a0606">raw vertex (pre-resample)</text>
</g>
</svg>
