<?xml version="1.0" encoding="UTF-8"?>
<svg xmlns="http://www.w3.org/2000/svg" viewBox="0 0 1600 800" width="1600" height="800">
<rect width="100%" height="100%" fill="white"/>
<text x="60" y="24" font-family="sans-serif" font-size="18" fill="#222">base-offset map: sgm_blk_1_3</text>
<text x="60" y="44" font-family="sans-serif" font-size="12" fill="#555">base verts = 8,  offset verts = 8 (raw 8 / resampled 0),  pre-resample raw = 8,  pairs = 9,  bbox y=[-1.99239, -0.963591]  z=[0.0698905, 1.17484]</text>
<g stroke="#888" stroke-width="0.7" opacity="0.7">
<line x1="714.414" y1="60" x2="909.152" y2="209.428" />
<line x1="714.414" y1="60" x2="1116.57" y2="341.567" />
<line x1="701.341" y1="77.0374" x2="1116.57" y2="341.567" />
<line x1="643.647" y1="167.597" x2="1070.43" y2="413.998" />
<line x1="594.067" y1="262.841" x2="1040.7" y2="471.107" />
<line x1="552.976" y1="362.043" x2="1016.06" y2="530.591" />
<line x1="520.687" y1="464.45" x2="996.696" y2="591.996" />
<line x1="497.447" y1="569.281" x2="982.76" y2="654.854" />
<line x1="483.431" y1="675.738" x2="974.357" y2="718.688" />
</g>
<polyline fill="none" stroke="#1f77b4" stroke-width="1.4" points="714.414,60 701.341,77.0374 643.647,167.597 594.067,262.841 552.976,362.043 520.687,464.45 497.447,569.281 483.431,675.738 " />
<polyline fill="none" stroke="#ff7f0e" stroke-width="1.4" points="909.152,209.428 1116.57,341.567 1070.43,413.998 1040.7,471.107 1016.06,530.591 996.696,591.996 982.76,654.854 974.357,718.688 " />
<circle cx="714.414" cy="60" r="3" fill="#1f77b4" stroke="#0b3d61" stroke-width="0.5" />
<text x="718.414" y="56" font-family="sans-serif" font-size="10" fill="#0b3d61">b0</text>
<circle cx="701.341" cy="77.0374" r="3" fill="#1f77b4" stroke="#0b3d61" stroke-width="0.5" />
<text x="705.341" y="73.0374" font-family="sans-serif" font-size="10" fill="#0b3d61">b1</text>
<circle cx="643.647" cy="167.597" r="3" fill="#1f77b4" stroke="#0b3d61" stroke-width="0.5" />
<text x="647.647" y="163.597" font-family="sans-serif" font-size="10" fill="#0b3d61">b2</text>
<circle cx="594.067" cy="262.841" r="3" fill="#1f77b4" stroke="#0b3d61" stroke-width="0.5" />
<text x="598.067" y="258.841" font-family="sans-serif" font-size="10" fill="#0b3d61">b3</text>
<circle cx="552.976" cy="362.043" r="3" fill="#1f77b4" stroke="#0b3d61" stroke-width="0.5" />
<text x="556.976" y="358.043" font-family="sans-serif" font-size="10" fill="#0b3d61">b4</text>
<circle cx="520.687" cy="464.45" r="3" fill="#1f77b4" stroke="#0b3d61" stroke-width="0.5" />
<text x="524.687" y="460.45" font-family="sans-serif" font-size="10" fill="#0b3d61">b5</text>
<circle cx="497.447" cy="569.281" r="3" fill="#1f77b4" stroke="#0b3d61" stroke-width="0.5" />
<text x="501.447" y="565.281" font-family="sans-serif" font-size="10" fill="#0b3d61">b6</text>
<circle cx="483.431" cy="675.738" r="3" fill="#1f77b4" stroke="#0b3d61" stroke-width="0.5" />
<text x="487.431" y="671.738" font-family="sans-serif" font-size="10" fill="#0b3d61">b7</text>
<circle cx="909.152" cy="209.428" r="3" fill="#ff7f0e" stroke="#7a3d05" stroke-width="0.5" />
<text x="913.152" y="221.428" font-family="sans-serif" font-size="10" fill="#7a3d05">o0</text>
<circle cx="1116.57" cy="341.567" r="3" fill="#ff7f0e" stroke="#7a3d05" stroke-width="0.5" />
<text x="1120.57" y="353.567" font-family="sans-serif" font-size="10" fill="#7a3d05">o1</text>
<circle cx="1070.43" cy="413.998" r="3" fill="#ff7f0e" stroke="#7a3d05" stroke-width="0.5" />
<text x="1074.43" y="425.998" font-family="sans-serif" font-size="10" fill="#7a3d05">o2</text>
<circle cx="1040.7" cy="471.107" r="3" fill="#ff7f0e" stroke="#7a3d05" stroke-width="0.5" />
<text x="1044.7" y="483.107" font-family="sans-serif" font-size="10" fill="#7a3d05">o3</text>
<circle cx="1016.06" cy="530.591" r="3" fill="#ff7f0e" stroke="#7a3d05" stroke-width="0.5" />
<text x="1020.06" y="542.591" font-family="sans-serif" font-size="10" fill="#7a3d05">o4</text>
<circle cx="996.696" cy="591.996" r="3" fill="#ff7f0e" stroke="#7a3d05" stroke-width="0.5" />
<text x="1000.7" y="603.996" font-family="sans-serif" font-size="10" fill="#7a3d05">o5</text>
<circle cx="982.76" cy="654.854" r="3" fill="#ff7f0e" stroke="#7a3d05" stroke-width="0.5" />
<text x="986.76" y="666.854" font-family="sans-serif" font-size="10" fill="#7a3d05">o6</text>
<circle cx="974.357" cy="718.688" r="3" fill="#ff7f0e" stroke="#7a3d05" stroke-width="0.5" />
<text x="978.357" y="730.688" font-family="sans-serif" font-size="10" fill="#7a3d05">o7</text>
<circle cx="909.152" cy="209.428" r="1.8" fill="#e41a1c" stroke="#5a0606" stroke-width="0.5" />
<circle cx="1116.57" cy="341.567" r="1.8" fill="#e41a1c" stroke="#5a0606" stroke-width="0.5" />
<circle cx="1070.43" cy="413.998" r="1.8" fill="#e41a1c" stroke="#5a0606" stroke-width="0.5" />
<circle cx="1040.7" cy="471.107" r="1.8" fill="#e41a1c" stroke="#5a0606" stroke-width="0.5" />
<circle cx="1016.06" cy="530.591" r="1.8" fill="#e41a1c" stroke="#5a0606" stroke-width="0.5" />
<circle cx="996.696" cy="591.996" r="1.8" fill="#e41a1c" stroke="#5a0606" stroke-width="0.5" />
<circle cx="982.76" cy="654.854" r="1.8" fill="#e41a1c" stroke="#5a0606" stroke-width="0.5" />
<circle cx="971.551" cy="740" r="1.8" fill="#e41a1c" stroke="#5a0606" stroke-width="0.5" />
<g font-family="sans-serif" font-size="12">
<rect x="1350" y="12" width="230" height="142" fill="#fafafa" stroke="#ccc"/>
<line x1="1360" y1="30" x2="1384" y2="30" stroke="#1f77b4" stroke-width="2"/>
<circle cx="1372" cy="30" r="3" fill="#1f77b4" stroke="#0b3d61" stroke-width="0.5" />
<text x="1392" y="34" font-family="sans-serif" font-size="12" fill="#0b3d61">base vertex (b_i)</text>
<line x1="1360" y1="50" x2="1384" y2="50" stroke="#ff7f0e" stroke-width="2"/>
<text x="1392" y="54" font-family="sans-serif" font-size="12" fill="#7a3d05">offset curve</text>
<circle cx="1372" cy="70" r="3" fill="#ff7f0e" stroke="#7a3d05" stroke-width="0.5" />
<text x="1392" y="74" font-family="sans-serif" font-size="12" fill="#7a3d05">offset: raw Clipper2</text>
<rect x="1368" y="86" width="8" height="8" fill="white" stroke="#7a3d05" stroke-width="1.2" />
<text x="1392" y="94" font-family="sans-serif" font-size="12" fill="#7a3d05">offset: base-vertex resample</text>
<line x1="1360" y1="110" x2="1384" y2="110" stroke="#888" stroke-width="0.7"/>
<text x="1392" y="114" font-family="sans-serif" font-size="12" fill="#444">pair (b_i, o_j)</text>
<circle cx="1372" cy="130" r="1.8" fill="#e41a1c" stroke="#5a0606" stroke-width="0.5" />
<text x="1392" y="134" font-family="sans-serif" font-size="12" fill="#5a0606">raw vertex (pre-resample)</text>
</g>
</svg>
