<?xml version="1.0" encoding="UTF-8"?>
<svg xmlns="http://www.w3.org/2000/svg" viewBox="0 0 1600 800" width="1600" height="800">
<rect width="100%" height="100%" fill="white"/>
<text x="60" y="24" font-family="sans-serif" font-size="18" fill="#222">base-offset map: sgm_blk_1_5</text>
<text x="60" y="44" font-family="sans-serif" font-size="12" fill="#555">base verts = 6,  offset verts = 6 (raw 6 / resampled 0),  pre-resample raw = 6,  pairs = 6,  bbox y=[-0.174311, 0.617479]  z=[-2, -1.51889]</text>
<g stroke="#888" stroke-width="0.7" opacity="0.7">
<line x1="240.448" y1="729.243" x2="289.769" y2="165.505" />
<line x1="486.817" y1="740" x2="486.817" y2="174.108" />
<line x1="733.186" y1="729.243" x2="683.865" y2="165.505" />
<line x1="977.68" y1="697.055" x2="879.414" y2="139.76" />
<line x1="1218.44" y1="643.68" x2="1071.97" y2="97.0705" />
<line x1="1359.55" y1="599.187" x2="1189.55" y2="60" />
</g>
<polyline fill="none" stroke="#1f77b4" stroke-width="1.4" points="240.448,729.243 486.817,740 733.186,729.243 977.68,697.055 1218.44,643.68 1359.55,599.187 " />
<polyline fill="none" stroke="#ff7f0e" stroke-width="1.4" points="289.769,165.505 486.817,174.108 683.865,165.505 879.414,139.76 1071.97,97.0705 1189.55,60 " />
<circle cx="240.448" cy="729.243" r="3" fill="#1f77b4" stroke="#0b3d61" stroke-width="0.5" />
<text x="244.448" y="725.243" font-family="sans-serif" font-size="10" fill="#0b3d61">b0</text>
<circle cx="486.817" cy="740" r="3" fill="#1f77b4" stroke="#0b3d61" stroke-width="0.5" />
<text x="490.817" y="736" font-family="sans-serif" font-size="10" fill="#0b3d61">b1</text>
<circle cx="733.186" cy="729.243" r="3" fill="#1f77b4" stroke="#0b3d61" stroke-width="0.5" />
<text x="737.186" y="725.243" font-family="sans-serif" font-size="10" fill="#0b3d61">b2</text>
<circle cx="977.68" cy="697.055" r="3" fill="#1f77b4" stroke="#0b3d61" stroke-width="0.5" />
<text x="981.68" y="693.055" font-family="sans-serif" font-size="10" fill="#0b3d61">b3</text>
<circle cx="1218.44" cy="643.68" r="3" fill="#1f77b4" stroke="#0b3d61" stroke-width="0.5" />
<text x="1222.44" y="639.68" font-family="sans-serif" font-size="10" fill="#0b3d61">b4</text>
<circle cx="1359.55" cy="599.187" r="3" fill="#1f77b4" stroke="#0b3d61" stroke-width="0.5" />
<text x="1363.55" y="595.187" font-family="sans-serif" font-size="10" fill="#0b3d61">b5</text>
<circle cx="289.769" cy="165.505" r="3" fill="#ff7f0e" stroke="#7a3d05" stroke-width="0.5" />
<text x="293.769" y="177.505" font-family="sans-serif" font-size="10" fill="#7a3d05">o0</text>
<circle cx="486.817" cy="174.108" r="3" fill="#ff7f0e" stroke="#7a3d05" stroke-width="0.5" />
<text x="490.817" y="186.108" font-family="sans-serif" font-size="10" fill="#7a3d05">o1</text>
<circle cx="683.865" cy="165.505" r="3" fill="#ff7f0e" stroke="#7a3d05" stroke-width="0.5" />
<text x="687.865" y="177.505" font-family="sans-serif" font-size="10" fill="#7a3d05">o2</text>
<circle cx="879.414" cy="139.76" r="3" fill="#ff7f0e" stroke="#7a3d05" stroke-width="0.5" />
<text x="883.414" y="151.76" font-family="sans-serif" font-size="10" fill="#7a3d05">o3</text>
<circle cx="1071.97" cy="97.0705" r="3" fill="#ff7f0e" stroke="#7a3d05" stroke-width="0.5" />
<text x="1075.97" y="109.071" font-family="sans-serif" font-size="10" fill="#7a3d05">o4</text>
<circle cx="1189.55" cy="60" r="3" fill="#ff7f0e" stroke="#7a3d05" stroke-width="0.5" />
<text x="1193.55" y="72" font-family="sans-serif" font-size="10" fill="#7a3d05">o5</text>
<circle cx="265.108" cy="164.428" r="1.8" fill="#e41a1c" stroke="#5a0606" stroke-width="0.5" />
<circle cx="486.817" cy="174.108" r="1.8" fill="#e41a1c" stroke="#5a0606" stroke-width="0.5" />
<circle cx="683.865" cy="165.505" r="1.8" fill="#e41a1c" stroke="#5a0606" stroke-width="0.5" />
<circle cx="879.414" cy="139.76" r="1.8" fill="#e41a1c" stroke="#5a0606" stroke-width="0.5" />
<circle cx="1071.97" cy="97.0705" r="1.8" fill="#e41a1c" stroke="#5a0606" stroke-width="0.5" />
<circle cx="1189.55" cy="60" r="1.8" fill="#e41a1c" stroke="#5a0606" stroke-width="0.5" />
<g font-family="sans-serif" font-size="12">
<rect x="1350" y="12" width="230" height="142" fill="#fafafa" stroke="#ccc"/>
<line x1="1360" y1="30" x2="1384" y2="30" stroke="#1f77b4" stroke-width="2"/>
<circle cx="1372" cy="30" r="3" fill="#1f77b4" stroke="#0b3d61" stroke-width="0.5" />
<text x="1392" y="34" font-family="sans-serif" font-size="12" fill="#0b3d61">base vertex (b_i)</text>
<line x1="1360" y1="50" x2="1384" y2="50" stroke="#ff7f0e" stroke-width="2"/>
<text x="1392" y="54" font-family="sans-serif" font-size="12" fill="#7a3d05">offset curve</text>
<circle cx="1372" cy="70" r="3" fill="#ff7f0e" stroke="#7a3d05" stroke-width="0.5" />
<text x="1392" y="74" font-family="sans-serif" font-size="12" fill="#7a3d05">offset: raw Clipper2</text>
<rect x="1368" y="86" width="8" height="8" fill="white" stroke="#7a3d05" stroke-width="1.2" />
<text x="1392" y="94" font-family="sans-serif" font-size="12" fill="#7a3d05">offset: base-vertex resample</text>
<line x1="1360" y1="110" x2="1384" y2="110" stroke="#888" stroke-width="0.7"/>
<text x="1392" y="114" font-family="sans-serif" font-size="12" fill="#444">pair (b_i, o_j)</text>
<circle cx="1372" cy="130" r="1.8" fill="#e41a1c" stroke="#5a0606" stroke-width="0.5" />
<text x="1392" y="134" font-family="sans-serif" font-size="12" fill="#5a0606">raw vertex (pre-resample)</text>
</g>
</svg>
