<?xml version="1.0" encoding="UTF-8"?>
<svg xmlns="http://www.w3.org/2000/svg" viewBox="0 0 1600 800" width="1600" height="800">
<rect width="100%" height="100%" fill="white"/>
<text x="60" y="24" font-family="sans-serif" font-size="18" fill="#222">base-offset map: sgm_blk_1_1</text>
<text x="60" y="44" font-family="sans-serif" font-size="12" fill="#555">base verts = 16,  offset verts = 16 (raw 16 / resampled 0),  pre-resample raw = 0,  pairs = 16,  bbox y=[0.497197, 2]  z=[-1.38778e-16, 1.90037]</text>
<g stroke="#888" stroke-width="0.7" opacity="0.7">
<line x1="1068.87" y1="740" x2="925.604" y2="740" />
<line x1="1066.15" y1="677.627" x2="923.426" y2="690.113" />
<line x1="1058" y1="615.729" x2="916.908" y2="640.607" />
<line x1="1044.48" y1="554.776" x2="906.1" y2="591.856" />
<line x1="1025.71" y1="495.233" x2="891.085" y2="544.233" />
<line x1="1001.82" y1="437.553" x2="871.976" y2="498.1" />
<line x1="972.991" y1="382.175" x2="848.919" y2="453.808" />
<line x1="939.446" y1="329.52" x2="822.089" y2="411.694" />
<line x1="901.44" y1="279.989" x2="791.692" y2="372.079" />
<line x1="859.261" y1="233.959" x2="757.957" y2="335.264" />
<line x1="813.231" y1="191.781" x2="721.141" y2="301.529" />
<line x1="763.7" y1="153.774" x2="681.526" y2="271.131" />
<line x1="711.045" y1="120.229" x2="639.412" y2="244.302" />
<line x1="655.667" y1="91.4013" x2="595.12" y2="221.245" />
<line x1="597.987" y1="67.5095" x2="548.987" y2="202.136" />
<line x1="574.17" y1="60" x2="531.13" y2="196.505" />
</g>
<polyline fill="none" stroke="#1f77b4" stroke-width="1.4" points="1068.87,740 1066.15,677.627 1058,615.729 1044.48,554.776 1025.71,495.233 1001.82,437.553 972.991,382.175 939.446,329.52 901.44,279.989 859.261,233.959 813.231,191.781 763.7,153.774 711.045,120.229 655.667,91.4013 597.987,67.5095 574.17,60 " />
<polyline fill="none" stroke="#ff7f0e" stroke-width="1.4" points="925.604,740 923.426,690.113 916.908,640.607 906.1,591.856 891.085,544.233 871.976,498.1 848.919,453.808 822.089,411.694 791.692,372.079 757.957,335.264 721.141,301.529 681.526,271.131 639.412,244.302 595.12,221.245 548.987,202.136 531.13,196.505 " />
<circle cx="1068.87" cy="740" r="3" fill="#1f77b4" stroke="#0b3d61" stroke-width="0.5" />
<text x="1072.87" y="736" font-family="sans-serif" font-size="10" fill="#0b3d61">b0</text>
<circle cx="1066.15" cy="677.627" r="3" fill="#1f77b4" stroke="#0b3d61" stroke-width="0.5" />
<text x="1070.15" y="673.627" font-family="sans-serif" font-size="10" fill="#0b3d61">b1</text>
<circle cx="1058" cy="615.729" r="3" fill="#1f77b4" stroke="#0b3d61" stroke-width="0.5" />
<text x="1062" y="611.729" font-family="sans-serif" font-size="10" fill="#0b3d61">b2</text>
<circle cx="1044.48" cy="554.776" r="3" fill="#1f77b4" stroke="#0b3d61" stroke-width="0.5" />
<text x="1048.48" y="550.776" font-family="sans-serif" font-size="10" fill="#0b3d61">b3</text>
<circle cx="1025.71" cy="495.233" r="3" fill="#1f77b4" stroke="#0b3d61" stroke-width="0.5" />
<text x="1029.71" y="491.233" font-family="sans-serif" font-size="10" fill="#0b3d61">b4</text>
<circle cx="1001.82" cy="437.553" r="3" fill="#1f77b4" stroke="#0b3d61" stroke-width="0.5" />
<text x="1005.82" y="433.553" font-family="sans-serif" font-size="10" fill="#0b3d61">b5</text>
<circle cx="972.991" cy="382.175" r="3" fill="#1f77b4" stroke="#0b3d61" stroke-width="0.5" />
<text x="976.991" y="378.175" font-family="sans-serif" font-size="10" fill="#0b3d61">b6</text>
<circle cx="939.446" cy="329.52" r="3" fill="#1f77b4" stroke="#0b3d61" stroke-width="0.5" />
<text x="943.446" y="325.52" font-family="sans-serif" font-size="10" fill="#0b3d61">b7</text>
<circle cx="901.44" cy="279.989" r="3" fill="#1f77b4" stroke="#0b3d61" stroke-width="0.5" />
<text x="905.44" y="275.989" font-family="sans-serif" font-size="10" fill="#0b3d61">b8</text>
<circle cx="859.261" cy="233.959" r="3" fill="#1f77b4" stroke="#0b3d61" stroke-width="0.5" />
<text x="863.261" y="229.959" font-family="sans-serif" font-size="10" fill="#0b3d61">b9</text>
<circle cx="813.231" cy="191.781" r="3" fill="#1f77b4" stroke="#0b3d61" stroke-width="0.5" />
<text x="817.231" y="187.781" font-family="sans-serif" font-size="10" fill="#0b3d61">b10</text>
<circle cx="763.7" cy="153.774" r="3" fill="#1f77b4" stroke="#0b3d61" stroke-width="0.5" />
<text x="767.7" y="149.774" font-family="sans-serif" font-size="10" fill="#0b3d61">b11</text>
<circle cx="711.045" cy="120.229" r="3" fill="#1f77b4" stroke="#0b3d61" stroke-width="0.5" />
<text x="715.045" y="116.229" font-family="sans-serif" font-size="10" fill="#0b3d61">b12</text>
<circle cx="655.667" cy="91.4013" r="3" fill="#1f77b4" stroke="#0b3d61" stroke-width="0.5" />
<text x="659.667" y="87.4013" font-family="sans-serif" font-size="10" fill="#0b3d61">b13</text>
<circle cx="597.987" cy="67.5095" r="3" fill="#1f77b4" stroke="#0b3d61" stroke-width="0.5" />
<text x="601.987" y="63.5095" font-family="sans-serif" font-size="10" fill="#0b3d61">b14</text>
<circle cx="574.17" cy="60" r="3" fill="#1f77b4" stroke="#0b3d61" stroke-width="0.5" />
<text x="578.17" y="56" font-family="sans-serif" font-size="10" fill="#0b3d61">b15</text>
<circle cx="925.604" cy="740" r="3" fill="#ff7f0e" stroke="#7a3d05" stroke-width="0.5" />
<text x="929.604" y="752" font-family="sans-serif" font-size="10" fill="#7a3d05">o0</text>
<circle cx="923.426" cy="690.113" r="3" fill="#ff7f0e" stroke="#7a3d05" stroke-width="0.5" />
<text x="927.426" y="702.113" font-family="sans-serif" font-size="10" fill="#7a3d05">o1</text>
<circle cx="916.908" cy="640.607" r="3" fill="#ff7f0e" stroke="#7a3d05" stroke-width="0.5" />
<text x="920.908" y="652.607" font-family="sans-serif" font-size="10" fill="#7a3d05">o2</text>
<circle cx="906.1" cy="591.856" r="3" fill="#ff7f0e" stroke="#7a3d05" stroke-width="0.5" />
<text x="910.1" y="603.856" font-family="sans-serif" font-size="10" fill="#7a3d05">o3</text>
<circle cx="891.085" cy="544.233" r="3" fill="#ff7f0e" stroke="#7a3d05" stroke-width="0.5" />
<text x="895.085" y="556.233" font-family="sans-serif" font-size="10" fill="#7a3d05">o4</text>
<circle cx="871.976" cy="498.1" r="3" fill="#ff7f0e" stroke="#7a3d05" stroke-width="0.5" />
<text x="875.976" y="510.1" font-family="sans-serif" font-size="10" fill="#7a3d05">o5</text>
<circle cx="848.919" cy="453.808" r="3" fill="#ff7f0e" stroke="#7a3d05" stroke-width="0.5" />
<text x="852.919" y="465.808" font-family="sans-serif" font-size="10" fill="#7a3d05">o6</text>
<circle cx="822.089" cy="411.694" r="3" fill="#ff7f0e" stroke="#7a3d05" stroke-width="0.5" />
<text x="826.089" y="423.694" font-family="sans-serif" font-size="10" fill="#7a3d05">o7</text>
<circle cx="791.692" cy="372.079" r="3" fill="#ff7f0e" stroke="#7a3d05" stroke-width="0.5" />
<text x="795.692" y="384.079" font-family="sans-serif" font-size="10" fill="#7a3d05">o8</text>
<circle cx="757.957" cy="335.264" r="3" fill="#ff7f0e" stroke="#7a3d05" stroke-width="0.5" />
<text x="761.957" y="347.264" font-family="sans-serif" font-size="10" fill="#7a3d05">o9</text>
<circle cx="721.141" cy="301.529" r="3" fill="#ff7f0e" stroke="#7a3d05" stroke-width="0.5" />
<text x="725.141" y="313.529" font-family="sans-serif" font-size="10" fill="#7a3d05">o10</text>
<circle cx="681.526" cy="271.131" r="3" fill="#ff7f0e" stroke="#7a3d05" stroke-width="0.5" />
<text x="685.526" y="283.131" font-family="sans-serif" font-size="10" fill="#7a3d05">o11</text>
<circle cx="639.412" cy="244.302" r="3" fill="#ff7f0e" stroke="#7a3d05" stroke-width="0.5" />
<text x="643.412" y="256.302" font-family="sans-serif" font-size="10" fill="#7a3d05">o12</text>
<circle cx="595.12" cy="221.245" r="3" fill="#ff7f0e" stroke="#7a3d05" stroke-width="0.5" />
<text x="599.12" y="233.245" font-family="sans-serif" font-size="10" fill="#7a3d05">o13</text>
<circle cx="548.987" cy="202.136" r="3" fill="#ff7f0e" stroke="#7a3d05" stroke-width="0.5" />
<text x="552.987" y="214.136" font-family="sans-serif" font-size="10" fill="#7a3d05">o14</text>
<circle cx="531.13" cy="196.505" r="3" fill="#ff7f0e" stroke="#7a3d05" stroke-width="0.5" />
<text x="535.13" y="208.505" font-family="sans-serif" font-size="10" fill="#7a3d05">o15</text>
<g font-family="sans-serif" font-size="12">
<rect x="1350" y="12" width="230" height="142" fill="#fafafa" stroke="#ccc"/>
<line x1="1360" y1="30" x2="1384" y2="30" stroke="#1f77b4" stroke-width="2"/>
<circle cx="1372" cy="30" r="3" fill="#1f77b4" stroke="#0b3d61" stroke-width="0.5" />
<text x="1392" y="34" font-family="sans-serif" font-size="12" fill="#0b3d61">base vertex (b_i)</text>
<line x1="1360" y1="50" x2="1384" y2="50" stroke="#ff7f0e" stroke-width="2"/>
<text x="1392" y="54" font-family="sans-serif" font-size="12" fill="#7a3d05">offset curve</text>
<circle cx="1372" cy="70" r="3" fill="#ff7f0e" stroke="#7a3d05" stroke-width="0.5" />
<text x="1392" y="74" font-family="sans-serif" font-size="12" fill="#7a3d05">offset: raw Clipper2</text>
<rect x="1368" y="86" width="8" height="8" fill="white" stroke="#7a3d05" stroke-width="1.2" />
<text x="1392" y="94" font-family="sans-serif" font-size="12" fill="#7a3d05">offset: base-vertex resample</text>
<line x1="1360" y1="110" x2="1384" y2="110" stroke="#888" stroke-width="0.7"/>
<text x="1392" y="114" font-family="sans-serif" font-size="12" fill="#444">pair (b_i, o_j)</text>
<circle cx="1372" cy="130" r="1.8" fill="#e41a1c" stroke="#5a0606" stroke-width="0.5" />
<text x="1392" y="134" font-family="sans-serif" font-size="12" fill="#5a0606">raw vertex (pre-resample)</text>
</g>
</svg>
