<?xml version="1.0" encoding="UTF-8"?>
<svg xmlns="http://www.w3.org/2000/svg" viewBox="0 0 1600 800" width="1600" height="800">
<rect width="100%" height="100%" fill="white"/>
<text x="60" y="24" font-family="sans-serif" font-size="18" fill="#222">base-offset map: sgm_1</text>
<text x="60" y="44" font-family="sans-serif" font-size="12" fill="#555">base verts = 2,  offset verts = 2 (raw 2 / resampled 0),  pre-resample raw = 0,  pairs = 2,  bbox y=[-1, 1]  z=[0, 0.08]</text>
<g stroke="#888" stroke-width="0.7" opacity="0.7">
<line x1="60" y1="429.6" x2="60" y2="370.4" />
<line x1="1540" y1="429.6" x2="1540" y2="370.4" />
</g>
<polyline fill="none" stroke="#1f77b4" stroke-width="1.4" points="60,429.6 1540,429.6 " />
<polyline fill="none" stroke="#ff7f0e" stroke-width="1.4" points="60,370.4 1540,370.4 " />
<circle cx="60" cy="429.6" r="3" fill="#1f77b4" stroke="#0b3d61" stroke-width="0.5" />
<text x="64" y="425.6" font-family="sans-serif" font-size="10" fill="#0b3d61">b0</text>
<circle cx="1540" cy="429.6" r="3" fill="#1f77b4" stroke="#0b3d61" stroke-width="0.5" />
<text x="1544" y="425.6" font-family="sans-serif" font-size="10" fill="#0b3d61">b1</text>
<circle cx="60" cy="370.4" r="3" fill="#ff7f0e" stroke="#7a3d05" stroke-width="0.5" />
<text x="64" y="382.4" font-family="sans-serif" font-size="10" fill="#7a3d05">o0</text>
<circle cx="1540" cy="370.4" r="3" fill="#ff7f0e" stroke="#7a3d05" stroke-width="0.5" />
<text x="1544" y="382.4" font-family="sans-serif" font-size="10" fill="#7a3d05">o1</text>
<g font-family="sans-serif" font-size="12">
<rect x="1350" y="12" width="230" height="142" fill="#fafafa" stroke="#ccc"/>
<line x1="1360" y1="30" x2="1384" y2="30" stroke="#1f77b4" stroke-width="2"/>
<circle cx="1372" cy="30" r="3" fill="#1f77b4" stroke="#0b3d61" stroke-width="0.5" />
<text x="1392" y="34" font-family="sans-serif" font-size="12" fill="#0b3d61">base vertex (b_i)</text>
<line x1="1360" y1="50" x2="1384" y2="50" stroke="#ff7f0e" stroke-width="2"/>
<text x="1392" y="54" font-family="sans-serif" font-size="12" fill="#7a3d05">offset curve</text>
<circle cx="1372" cy="70" r="3" fill="#ff7f0e" stroke="#7a3d05" stroke-width="0.5" />
<text x="1392" y="74" font-family="sans-serif" font-size="12" fill="#7a3d05">offset: raw Clipper2</text>
<rect x="1368" y="86" width="8" height="8" fill="white" stroke="#7a3d05" stroke-width="1.2" />
<text x="1392" y="94" font-family="sans-serif" font-size="12" fill="#7a3d05">offset: base-vertex resample</text>
<line x1="1360" y1="110" x2="1384" y2="110" stroke="#888" stroke-width="0.7"/>
<text x="1392" y="114" font-family="sans-serif" font-size="12" fill="#444">pair (b_i, o_j)</text>
<circle cx="1372" cy="130" r="1.8" fill="#e41a1c" stroke="#5a0606" stroke-width="0.5" />
<text x="1392" y="134" font-family="sans-serif" font-size="12" fill="#5a0606">raw vertex (pre-resample)</text>
</g>
</svg>
