<?xml version="1.0" encoding="UTF-8"?>
<svg xmlns="http://www.w3.org/2000/svg" viewBox="0 0 1600 800" width="1600" height="800">
<rect width="100%" height="100%" fill="white"/>
<text x="60" y="24" font-family="sans-serif" font-size="18" fill="#222">base-offset map: sg_hps_2</text>
<text x="60" y="44" font-family="sans-serif" font-size="12" fill="#555">base verts = 8,  offset verts = 8 (raw 1 / resampled 7),  pre-resample raw = 8,  pairs = 8,  bbox y=[-0.467298, -0.254346]  z=[-0.0866828, -0.00063512]</text>
<g stroke="#888" stroke-width="0.7" opacity="0.7">
<line x1="60" y1="193.948" x2="147.621" y2="100.987" />
<line x1="84.4882" y1="217.03" x2="164.199" y2="116.613" />
<line x1="245.333" y1="323.811" x2="307.815" y2="211.957" />
<line x1="464.672" y1="425.142" x2="512.602" y2="306.565" />
<line x1="744.37" y1="522.664" x2="781.986" y2="400.491" />
<line x1="1080.24" y1="612.686" x2="1109.47" y2="488.267" />
<line x1="1468.6" y1="691.297" x2="1490.49" y2="565.39" />
<line x1="1521.59" y1="699.013" x2="1540" y2="572.599" />
</g>
<polyline fill="none" stroke="#1f77b4" stroke-width="1.4" points="60,193.948 84.4882,217.03 245.333,323.811 464.672,425.142 744.37,522.664 1080.24,612.686 1468.6,691.297 1521.59,699.013 " />
<polyline fill="none" stroke="#ff7f0e" stroke-width="1.4" points="147.621,100.987 164.199,116.613 307.815,211.957 512.602,306.565 781.986,400.491 1109.47,488.267 1490.49,565.39 1540,572.599 " />
<circle cx="60" cy="193.948" r="3" fill="#1f77b4" stroke="#0b3d61" stroke-width="0.5" />
<text x="64" y="189.948" font-family="sans-serif" font-size="10" fill="#0b3d61">b0</text>
<circle cx="84.4882" cy="217.03" r="3" fill="#1f77b4" stroke="#0b3d61" stroke-width="0.5" />
<text x="88.4882" y="213.03" font-family="sans-serif" font-size="10" fill="#0b3d61">b1</text>
<circle cx="245.333" cy="323.811" r="3" fill="#1f77b4" stroke="#0b3d61" stroke-width="0.5" />
<text x="249.333" y="319.811" font-family="sans-serif" font-size="10" fill="#0b3d61">b2</text>
<circle cx="464.672" cy="425.142" r="3" fill="#1f77b4" stroke="#0b3d61" stroke-width="0.5" />
<text x="468.672" y="421.142" font-family="sans-serif" font-size="10" fill="#0b3d61">b3</text>
<circle cx="744.37" cy="522.664" r="3" fill="#1f77b4" stroke="#0b3d61" stroke-width="0.5" />
<text x="748.37" y="518.664" font-family="sans-serif" font-size="10" fill="#0b3d61">b4</text>
<circle cx="1080.24" cy="612.686" r="3" fill="#1f77b4" stroke="#0b3d61" stroke-width="0.5" />
<text x="1084.24" y="608.686" font-family="sans-serif" font-size="10" fill="#0b3d61">b5</text>
<circle cx="1468.6" cy="691.297" r="3" fill="#1f77b4" stroke="#0b3d61" stroke-width="0.5" />
<text x="1472.6" y="687.297" font-family="sans-serif" font-size="10" fill="#0b3d61">b6</text>
<circle cx="1521.59" cy="699.013" r="3" fill="#1f77b4" stroke="#0b3d61" stroke-width="0.5" />
<text x="1525.59" y="695.013" font-family="sans-serif" font-size="10" fill="#0b3d61">b7</text>
<circle cx="147.621" cy="100.987" r="3" fill="#ff7f0e" stroke="#7a3d05" stroke-width="0.5" />
<text x="151.621" y="112.987" font-family="sans-serif" font-size="10" fill="#7a3d05">o0</text>
<rect x="160.199" y="112.613" width="8" height="8" fill="none" stroke="#7a3d05" stroke-width="1.2" />
<text x="168.199" y="128.613" font-family="sans-serif" font-size="10" fill="#7a3d05">o1</text>
<rect x="303.815" y="207.957" width="8" height="8" fill="none" stroke="#7a3d05" stroke-width="1.2" />
<text x="311.815" y="223.957" font-family="sans-serif" font-size="10" fill="#7a3d05">o2</text>
<rect x="508.602" y="302.565" width="8" height="8" fill="none" stroke="#7a3d05" stroke-width="1.2" />
<text x="516.602" y="318.565" font-family="sans-serif" font-size="10" fill="#7a3d05">o3</text>
<rect x="777.986" y="396.491" width="8" height="8" fill="none" stroke="#7a3d05" stroke-width="1.2" />
<text x="785.986" y="412.491" font-family="sans-serif" font-size="10" fill="#7a3d05">o4</text>
<rect x="1105.47" y="484.267" width="8" height="8" fill="none" stroke="#7a3d05" stroke-width="1.2" />
<text x="1113.47" y="500.267" font-family="sans-serif" font-size="10" fill="#7a3d05">o5</text>
<rect x="1486.49" y="561.39" width="8" height="8" fill="none" stroke="#7a3d05" stroke-width="1.2" />
<text x="1494.49" y="577.39" font-family="sans-serif" font-size="10" fill="#7a3d05">o6</text>
<rect x="1536" y="568.599" width="8" height="8" fill="none" stroke="#7a3d05" stroke-width="1.2" />
<text x="1544" y="584.599" font-family="sans-serif" font-size="10" fill="#7a3d05">o7</text>
<circle cx="147.621" cy="100.987" r="1.8" fill="#e41a1c" stroke="#5a0606" stroke-width="0.5" />
<circle cx="164.199" cy="116.613" r="1.8" fill="#e41a1c" stroke="#5a0606" stroke-width="0.5" />
<circle cx="307.815" cy="211.957" r="1.8" fill="#e41a1c" stroke="#5a0606" stroke-width="0.5" />
<circle cx="512.602" cy="306.565" r="1.8" fill="#e41a1c" stroke="#5a0606" stroke-width="0.5" />
<circle cx="781.986" cy="400.491" r="1.8" fill="#e41a1c" stroke="#5a0606" stroke-width="0.5" />
<circle cx="1109.47" cy="488.267" r="1.8" fill="#e41a1c" stroke="#5a0606" stroke-width="0.5" />
<circle cx="1490.49" cy="565.39" r="1.8" fill="#e41a1c" stroke="#5a0606" stroke-width="0.5" />
<circle cx="1540" cy="572.599" r="1.8" fill="#e41a1c" stroke="#5a0606" stroke-width="0.5" />
<g font-family="sans-serif" font-size="12">
<rect x="1350" y="12" width="230" height="142" fill="#fafafa" stroke="#ccc"/>
<line x1="1360" y1="30" x2="1384" y2="30" stroke="#1f77b4" stroke-width="2"/>
<circle cx="1372" cy="30" r="3" fill="#1f77b4" stroke="#0b3d61" stroke-width="0.5" />
<text x="1392" y="34" font-family="sans-serif" font-size="12" fill="#0b3d61">base vertex (b_i)</text>
<line x1="1360" y1="50" x2="1384" y2="50" stroke="#ff7f0e" stroke-width="2"/>
<text x="1392" y="54" font-family="sans-serif" font-size="12" fill="#7a3d05">offset curve</text>
<circle cx="1372" cy="70" r="3" fill="#ff7f0e" stroke="#7a3d05" stroke-width="0.5" />
<text x="1392" y="74" font-family="sans-serif" font-size="12" fill="#7a3d05">offset: raw Clipper2</text>
<rect x="1368" y="86" width="8" height="8" fill="white" stroke="#7a3d05" stroke-width="1.2" />
<text x="1392" y="94" font-family="sans-serif" font-size="12" fill="#7a3d05">offset: base-vertex resample</text>
<line x1="1360" y1="110" x2="1384" y2="110" stroke="#888" stroke-width="0.7"/>
<text x="1392" y="114" font-family="sans-serif" font-size="12" fill="#444">pair (b_i, o_j)</text>
<circle cx="1372" cy="130" r="1.8" fill="#e41a1c" stroke="#5a0606" stroke-width="0.5" />
<text x="1392" y="134" font-family="sans-serif" font-size="12" fill="#5a0606">raw vertex (pre-resample)</text>
</g>
</svg>
