<?xml version="1.0" encoding="UTF-8"?>
<svg xmlns="http://www.w3.org/2000/svg" viewBox="0 0 1600 800" width="1600" height="800">
<rect width="100%" height="100%" fill="white"/>
<text x="60" y="24" font-family="sans-serif" font-size="18" fill="#222">base-offset map: sg_lps_3</text>
<text x="60" y="44" font-family="sans-serif" font-size="12" fill="#555">base verts = 12,  offset verts = 12 (raw 1 / resampled 11),  pre-resample raw = 12,  pairs = 12,  bbox y=[-0.256994, 0.54457]  z=[0.072803, 0.182911]</text>
<g stroke="#888" stroke-width="0.7" opacity="0.7">
<line x1="1540" y1="389.935" x2="1522.35" y2="501.651" />
<line x1="1416.78" y1="370.464" x2="1399.95" y2="482.308" />
<line x1="1241.19" y1="345.336" x2="1226.31" y2="457.461" />
<line x1="1070.39" y1="324.444" x2="1058.16" y2="436.893" />
<line x1="905.988" y1="308.783" x2="897.286" y2="421.568" />
<line x1="749.581" y1="299.538" x2="745.787" y2="412.614" />
<line x1="601.737" y1="298.349" x2="604.149" y2="411.475" />
<line x1="461.756" y1="305.449" x2="470.622" y2="418.247" />
<line x1="329.856" y1="319.51" x2="344.995" y2="431.639" />
<line x1="207.244" y1="339.574" x2="228.864" y2="450.643" />
<line x1="94.8889" y1="364.97" x2="123.41" y2="474.479" />
<line x1="60" y1="375.277" x2="92.0454" y2="483.745" />
</g>
<polyline fill="none" stroke="#1f77b4" stroke-width="1.4" points="1540,389.935 1416.78,370.464 1241.19,345.336 1070.39,324.444 905.988,308.783 749.581,299.538 601.737,298.349 461.756,305.449 329.856,319.51 207.244,339.574 94.8889,364.97 60,375.277 " />
<polyline fill="none" stroke="#ff7f0e" stroke-width="1.4" points="1522.35,501.651 1399.95,482.308 1226.31,457.461 1058.16,436.893 897.286,421.568 745.787,412.614 604.149,411.475 470.622,418.247 344.995,431.639 228.864,450.643 123.41,474.479 92.0454,483.745 " />
<circle cx="1540" cy="389.935" r="3" fill="#1f77b4" stroke="#0b3d61" stroke-width="0.5" />
<text x="1544" y="385.935" font-family="sans-serif" font-size="10" fill="#0b3d61">b0</text>
<circle cx="1416.78" cy="370.464" r="3" fill="#1f77b4" stroke="#0b3d61" stroke-width="0.5" />
<text x="1420.78" y="366.464" font-family="sans-serif" font-size="10" fill="#0b3d61">b1</text>
<circle cx="1241.19" cy="345.336" r="3" fill="#1f77b4" stroke="#0b3d61" stroke-width="0.5" />
<text x="1245.19" y="341.336" font-family="sans-serif" font-size="10" fill="#0b3d61">b2</text>
<circle cx="1070.39" cy="324.444" r="3" fill="#1f77b4" stroke="#0b3d61" stroke-width="0.5" />
<text x="1074.39" y="320.444" font-family="sans-serif" font-size="10" fill="#0b3d61">b3</text>
<circle cx="905.988" cy="308.783" r="3" fill="#1f77b4" stroke="#0b3d61" stroke-width="0.5" />
<text x="909.988" y="304.783" font-family="sans-serif" font-size="10" fill="#0b3d61">b4</text>
<circle cx="749.581" cy="299.538" r="3" fill="#1f77b4" stroke="#0b3d61" stroke-width="0.5" />
<text x="753.581" y="295.538" font-family="sans-serif" font-size="10" fill="#0b3d61">b5</text>
<circle cx="601.737" cy="298.349" r="3" fill="#1f77b4" stroke="#0b3d61" stroke-width="0.5" />
<text x="605.737" y="294.349" font-family="sans-serif" font-size="10" fill="#0b3d61">b6</text>
<circle cx="461.756" cy="305.449" r="3" fill="#1f77b4" stroke="#0b3d61" stroke-width="0.5" />
<text x="465.756" y="301.449" font-family="sans-serif" font-size="10" fill="#0b3d61">b7</text>
<circle cx="329.856" cy="319.51" r="3" fill="#1f77b4" stroke="#0b3d61" stroke-width="0.5" />
<text x="333.856" y="315.51" font-family="sans-serif" font-size="10" fill="#0b3d61">b8</text>
<circle cx="207.244" cy="339.574" r="3" fill="#1f77b4" stroke="#0b3d61" stroke-width="0.5" />
<text x="211.244" y="335.574" font-family="sans-serif" font-size="10" fill="#0b3d61">b9</text>
<circle cx="94.8889" cy="364.97" r="3" fill="#1f77b4" stroke="#0b3d61" stroke-width="0.5" />
<text x="98.8889" y="360.97" font-family="sans-serif" font-size="10" fill="#0b3d61">b10</text>
<circle cx="60" cy="375.277" r="3" fill="#1f77b4" stroke="#0b3d61" stroke-width="0.5" />
<text x="64" y="371.277" font-family="sans-serif" font-size="10" fill="#0b3d61">b11</text>
<circle cx="1522.35" cy="501.651" r="3" fill="#ff7f0e" stroke="#7a3d05" stroke-width="0.5" />
<text x="1526.35" y="513.651" font-family="sans-serif" font-size="10" fill="#7a3d05">o0</text>
<rect x="1395.95" y="478.308" width="8" height="8" fill="none" stroke="#7a3d05" stroke-width="1.2" />
<text x="1403.95" y="494.308" font-family="sans-serif" font-size="10" fill="#7a3d05">o1</text>
<rect x="1222.31" y="453.461" width="8" height="8" fill="none" stroke="#7a3d05" stroke-width="1.2" />
<text x="1230.31" y="469.461" font-family="sans-serif" font-size="10" fill="#7a3d05">o2</text>
<rect x="1054.16" y="432.893" width="8" height="8" fill="none" stroke="#7a3d05" stroke-width="1.2" />
<text x="1062.16" y="448.893" font-family="sans-serif" font-size="10" fill="#7a3d05">o3</text>
<rect x="893.286" y="417.568" width="8" height="8" fill="none" stroke="#7a3d05" stroke-width="1.2" />
<text x="901.286" y="433.568" font-family="sans-serif" font-size="10" fill="#7a3d05">o4</text>
<rect x="741.787" y="408.614" width="8" height="8" fill="none" stroke="#7a3d05" stroke-width="1.2" />
<text x="749.787" y="424.614" font-family="sans-serif" font-size="10" fill="#7a3d05">o5</text>
<rect x="600.149" y="407.475" width="8" height="8" fill="none" stroke="#7a3d05" stroke-width="1.2" />
<text x="608.149" y="423.475" font-family="sans-serif" font-size="10" fill="#7a3d05">o6</text>
<rect x="466.622" y="414.247" width="8" height="8" fill="none" stroke="#7a3d05" stroke-width="1.2" />
<text x="474.622" y="430.247" font-family="sans-serif" font-size="10" fill="#7a3d05">o7</text>
<rect x="340.995" y="427.639" width="8" height="8" fill="none" stroke="#7a3d05" stroke-width="1.2" />
<text x="348.995" y="443.639" font-family="sans-serif" font-size="10" fill="#7a3d05">o8</text>
<rect x="224.864" y="446.643" width="8" height="8" fill="none" stroke="#7a3d05" stroke-width="1.2" />
<text x="232.864" y="462.643" font-family="sans-serif" font-size="10" fill="#7a3d05">o9</text>
<rect x="119.41" y="470.479" width="8" height="8" fill="none" stroke="#7a3d05" stroke-width="1.2" />
<text x="127.41" y="486.479" font-family="sans-serif" font-size="10" fill="#7a3d05">o10</text>
<rect x="88.0454" y="479.745" width="8" height="8" fill="none" stroke="#7a3d05" stroke-width="1.2" />
<text x="96.0454" y="495.745" font-family="sans-serif" font-size="10" fill="#7a3d05">o11</text>
<circle cx="1522.35" cy="501.651" r="1.8" fill="#e41a1c" stroke="#5a0606" stroke-width="0.5" />
<circle cx="1399.95" cy="482.308" r="1.8" fill="#e41a1c" stroke="#5a0606" stroke-width="0.5" />
<circle cx="1226.31" cy="457.461" r="1.8" fill="#e41a1c" stroke="#5a0606" stroke-width="0.5" />
<circle cx="1058.16" cy="436.893" r="1.8" fill="#e41a1c" stroke="#5a0606" stroke-width="0.5" />
<circle cx="897.286" cy="421.568" r="1.8" fill="#e41a1c" stroke="#5a0606" stroke-width="0.5" />
<circle cx="745.787" cy="412.614" r="1.8" fill="#e41a1c" stroke="#5a0606" stroke-width="0.5" />
<circle cx="604.149" cy="411.475" r="1.8" fill="#e41a1c" stroke="#5a0606" stroke-width="0.5" />
<circle cx="470.622" cy="418.247" r="1.8" fill="#e41a1c" stroke="#5a0606" stroke-width="0.5" />
<circle cx="344.995" cy="431.639" r="1.8" fill="#e41a1c" stroke="#5a0606" stroke-width="0.5" />
<circle cx="228.864" cy="450.643" r="1.8" fill="#e41a1c" stroke="#5a0606" stroke-width="0.5" />
<circle cx="123.41" cy="474.479" r="1.8" fill="#e41a1c" stroke="#5a0606" stroke-width="0.5" />
<circle cx="92.0454" cy="483.745" r="1.8" fill="#e41a1c" stroke="#5a0606" stroke-width="0.5" />
<g font-family="sans-serif" font-size="12">
<rect x="1350" y="12" width="230" height="142" fill="#fafafa" stroke="#ccc"/>
<line x1="1360" y1="30" x2="1384" y2="30" stroke="#1f77b4" stroke-width="2"/>
<circle cx="1372" cy="30" r="3" fill="#1f77b4" stroke="#0b3d61" stroke-width="0.5" />
<text x="1392" y="34" font-family="sans-serif" font-size="12" fill="#0b3d61">base vertex (b_i)</text>
<line x1="1360" y1="50" x2="1384" y2="50" stroke="#ff7f0e" stroke-width="2"/>
<text x="1392" y="54" font-family="sans-serif" font-size="12" fill="#7a3d05">offset curve</text>
<circle cx="1372" cy="70" r="3" fill="#ff7f0e" stroke="#7a3d05" stroke-width="0.5" />
<text x="1392" y="74" font-family="sans-serif" font-size="12" fill="#7a3d05">offset: raw Clipper2</text>
<rect x="1368" y="86" width="8" height="8" fill="white" stroke="#7a3d05" stroke-width="1.2" />
<text x="1392" y="94" font-family="sans-serif" font-size="12" fill="#7a3d05">offset: base-vertex resample</text>
<line x1="1360" y1="110" x2="1384" y2="110" stroke="#888" stroke-width="0.7"/>
<text x="1392" y="114" font-family="sans-serif" font-size="12" fill="#444">pair (b_i, o_j)</text>
<circle cx="1372" cy="130" r="1.8" fill="#e41a1c" stroke="#5a0606" stroke-width="0.5" />
<text x="1392" y="134" font-family="sans-serif" font-size="12" fill="#5a0606">raw vertex (pre-resample)</text>
</g>
</svg>
