<?xml version="1.0" encoding="UTF-8"?>
<svg xmlns="http://www.w3.org/2000/svg" viewBox="0 0 1600 800" width="1600" height="800">
<rect width="100%" height="100%" fill="white"/>
<text x="60" y="24" font-family="sans-serif" font-size="18" fill="#222">base-offset map: sg_hps_3</text>
<text x="60" y="44" font-family="sans-serif" font-size="12" fill="#555">base verts = 11,  offset verts = 11 (raw 1 / resampled 10),  pre-resample raw = 11,  pairs = 11,  bbox y=[-0.256994, 0.54457]  z=[-0.107096, -0.0240862]</text>
<g stroke="#888" stroke-width="0.7" opacity="0.7">
<line x1="60" y1="438.943" x2="76.2969" y2="327.021" />
<line x1="162.309" y1="453.84" x2="175.846" y2="341.516" />
<line x1="291.287" y1="466.166" x2="299.664" y2="353.349" />
<line x1="432.386" y1="473.646" x2="436.49" y2="360.602" />
<line x1="584.776" y1="476.635" x2="585.509" y2="363.525" />
<line x1="747.151" y1="475.555" x2="745.227" y2="362.463" />
<line x1="918.059" y1="470.875" x2="914.079" y2="357.839" />
<line x1="1095.79" y1="463.226" x2="1090.27" y2="350.257" />
<line x1="1278.37" y1="453.249" x2="1271.72" y2="340.341" />
<line x1="1463.55" y1="441.573" x2="1456.02" y2="328.721" />
<line x1="1540" y1="436.188" x2="1532.05" y2="323.365" />
</g>
<polyline fill="none" stroke="#1f77b4" stroke-width="1.4" points="60,438.943 162.309,453.84 291.287,466.166 432.386,473.646 584.776,476.635 747.151,475.555 918.059,470.875 1095.79,463.226 1278.37,453.249 1463.55,441.573 1540,436.188 " />
<polyline fill="none" stroke="#ff7f0e" stroke-width="1.4" points="76.2969,327.021 175.846,341.516 299.664,353.349 436.49,360.602 585.509,363.525 745.227,362.463 914.079,357.839 1090.27,350.257 1271.72,340.341 1456.02,328.721 1532.05,323.365 " />
<circle cx="60" cy="438.943" r="3" fill="#1f77b4" stroke="#0b3d61" stroke-width="0.5" />
<text x="64" y="434.943" font-family="sans-serif" font-size="10" fill="#0b3d61">b0</text>
<circle cx="162.309" cy="453.84" r="3" fill="#1f77b4" stroke="#0b3d61" stroke-width="0.5" />
<text x="166.309" y="449.84" font-family="sans-serif" font-size="10" fill="#0b3d61">b1</text>
<circle cx="291.287" cy="466.166" r="3" fill="#1f77b4" stroke="#0b3d61" stroke-width="0.5" />
<text x="295.287" y="462.166" font-family="sans-serif" font-size="10" fill="#0b3d61">b2</text>
<circle cx="432.386" cy="473.646" r="3" fill="#1f77b4" stroke="#0b3d61" stroke-width="0.5" />
<text x="436.386" y="469.646" font-family="sans-serif" font-size="10" fill="#0b3d61">b3</text>
<circle cx="584.776" cy="476.635" r="3" fill="#1f77b4" stroke="#0b3d61" stroke-width="0.5" />
<text x="588.776" y="472.635" font-family="sans-serif" font-size="10" fill="#0b3d61">b4</text>
<circle cx="747.151" cy="475.555" r="3" fill="#1f77b4" stroke="#0b3d61" stroke-width="0.5" />
<text x="751.151" y="471.555" font-family="sans-serif" font-size="10" fill="#0b3d61">b5</text>
<circle cx="918.059" cy="470.875" r="3" fill="#1f77b4" stroke="#0b3d61" stroke-width="0.5" />
<text x="922.059" y="466.875" font-family="sans-serif" font-size="10" fill="#0b3d61">b6</text>
<circle cx="1095.79" cy="463.226" r="3" fill="#1f77b4" stroke="#0b3d61" stroke-width="0.5" />
<text x="1099.79" y="459.226" font-family="sans-serif" font-size="10" fill="#0b3d61">b7</text>
<circle cx="1278.37" cy="453.249" r="3" fill="#1f77b4" stroke="#0b3d61" stroke-width="0.5" />
<text x="1282.37" y="449.249" font-family="sans-serif" font-size="10" fill="#0b3d61">b8</text>
<circle cx="1463.55" cy="441.573" r="3" fill="#1f77b4" stroke="#0b3d61" stroke-width="0.5" />
<text x="1467.55" y="437.573" font-family="sans-serif" font-size="10" fill="#0b3d61">b9</text>
<circle cx="1540" cy="436.188" r="3" fill="#1f77b4" stroke="#0b3d61" stroke-width="0.5" />
<text x="1544" y="432.188" font-family="sans-serif" font-size="10" fill="#0b3d61">b10</text>
<circle cx="76.2969" cy="327.021" r="3" fill="#ff7f0e" stroke="#7a3d05" stroke-width="0.5" />
<text x="80.2969" y="339.021" font-family="sans-serif" font-size="10" fill="#7a3d05">o0</text>
<rect x="171.846" y="337.516" width="8" height="8" fill="none" stroke="#7a3d05" stroke-width="1.2" />
<text x="179.846" y="353.516" font-family="sans-serif" font-size="10" fill="#7a3d05">o1</text>
<rect x="295.664" y="349.349" width="8" height="8" fill="none" stroke="#7a3d05" stroke-width="1.2" />
<text x="303.664" y="365.349" font-family="sans-serif" font-size="10" fill="#7a3d05">o2</text>
<rect x="432.49" y="356.602" width="8" height="8" fill="none" stroke="#7a3d05" stroke-width="1.2" />
<text x="440.49" y="372.602" font-family="sans-serif" font-size="10" fill="#7a3d05">o3</text>
<rect x="581.509" y="359.525" width="8" height="8" fill="none" stroke="#7a3d05" stroke-width="1.2" />
<text x="589.509" y="375.525" font-family="sans-serif" font-size="10" fill="#7a3d05">o4</text>
<rect x="741.227" y="358.463" width="8" height="8" fill="none" stroke="#7a3d05" stroke-width="1.2" />
<text x="749.227" y="374.463" font-family="sans-serif" font-size="10" fill="#7a3d05">o5</text>
<rect x="910.079" y="353.839" width="8" height="8" fill="none" stroke="#7a3d05" stroke-width="1.2" />
<text x="918.079" y="369.839" font-family="sans-serif" font-size="10" fill="#7a3d05">o6</text>
<rect x="1086.27" y="346.257" width="8" height="8" fill="none" stroke="#7a3d05" stroke-width="1.2" />
<text x="1094.27" y="362.257" font-family="sans-serif" font-size="10" fill="#7a3d05">o7</text>
<rect x="1267.72" y="336.341" width="8" height="8" fill="none" stroke="#7a3d05" stroke-width="1.2" />
<text x="1275.72" y="352.341" font-family="sans-serif" font-size="10" fill="#7a3d05">o8</text>
<rect x="1452.02" y="324.721" width="8" height="8" fill="none" stroke="#7a3d05" stroke-width="1.2" />
<text x="1460.02" y="340.721" font-family="sans-serif" font-size="10" fill="#7a3d05">o9</text>
<rect x="1528.05" y="319.365" width="8" height="8" fill="none" stroke="#7a3d05" stroke-width="1.2" />
<text x="1536.05" y="335.365" font-family="sans-serif" font-size="10" fill="#7a3d05">o10</text>
<circle cx="76.2969" cy="327.021" r="1.8" fill="#e41a1c" stroke="#5a0606" stroke-width="0.5" />
<circle cx="175.846" cy="341.516" r="1.8" fill="#e41a1c" stroke="#5a0606" stroke-width="0.5" />
<circle cx="299.664" cy="353.349" r="1.8" fill="#e41a1c" stroke="#5a0606" stroke-width="0.5" />
<circle cx="436.49" cy="360.602" r="1.8" fill="#e41a1c" stroke="#5a0606" stroke-width="0.5" />
<circle cx="585.509" cy="363.525" r="1.8" fill="#e41a1c" stroke="#5a0606" stroke-width="0.5" />
<circle cx="745.227" cy="362.463" r="1.8" fill="#e41a1c" stroke="#5a0606" stroke-width="0.5" />
<circle cx="914.079" cy="357.839" r="1.8" fill="#e41a1c" stroke="#5a0606" stroke-width="0.5" />
<circle cx="1090.27" cy="350.257" r="1.8" fill="#e41a1c" stroke="#5a0606" stroke-width="0.5" />
<circle cx="1271.72" cy="340.341" r="1.8" fill="#e41a1c" stroke="#5a0606" stroke-width="0.5" />
<circle cx="1456.02" cy="328.721" r="1.8" fill="#e41a1c" stroke="#5a0606" stroke-width="0.5" />
<circle cx="1532.05" cy="323.365" r="1.8" fill="#e41a1c" stroke="#5a0606" stroke-width="0.5" />
<g font-family="sans-serif" font-size="12">
<rect x="1350" y="12" width="230" height="142" fill="#fafafa" stroke="#ccc"/>
<line x1="1360" y1="30" x2="1384" y2="30" stroke="#1f77b4" stroke-width="2"/>
<circle cx="1372" cy="30" r="3" fill="#1f77b4" stroke="#0b3d61" stroke-width="0.5" />
<text x="1392" y="34" font-family="sans-serif" font-size="12" fill="#0b3d61">base vertex (b_i)</text>
<line x1="1360" y1="50" x2="1384" y2="50" stroke="#ff7f0e" stroke-width="2"/>
<text x="1392" y="54" font-family="sans-serif" font-size="12" fill="#7a3d05">offset curve</text>
<circle cx="1372" cy="70" r="3" fill="#ff7f0e" stroke="#7a3d05" stroke-width="0.5" />
<text x="1392" y="74" font-family="sans-serif" font-size="12" fill="#7a3d05">offset: raw Clipper2</text>
<rect x="1368" y="86" width="8" height="8" fill="white" stroke="#7a3d05" stroke-width="1.2" />
<text x="1392" y="94" font-family="sans-serif" font-size="12" fill="#7a3d05">offset: base-vertex resample</text>
<line x1="1360" y1="110" x2="1384" y2="110" stroke="#888" stroke-width="0.7"/>
<text x="1392" y="114" font-family="sans-serif" font-size="12" fill="#444">pair (b_i, o_j)</text>
<circle cx="1372" cy="130" r="1.8" fill="#e41a1c" stroke="#5a0606" stroke-width="0.5" />
<text x="1392" y="134" font-family="sans-serif" font-size="12" fill="#5a0606">raw vertex (pre-resample)</text>
</g>
</svg>
