<?xml version="1.0" encoding="UTF-8"?>
<svg xmlns="http://www.w3.org/2000/svg" viewBox="0 0 1600 800" width="1600" height="800">
<rect width="100%" height="100%" fill="white"/>
<text x="60" y="24" font-family="sans-serif" font-size="18" fill="#222">base-offset map: sg_te</text>
<text x="60" y="44" font-family="sans-serif" font-size="12" fill="#555">base verts = 29,  offset verts = 19 (raw 2 / resampled 17),  pre-resample raw = 19,  pairs = 29,  bbox y=[0.541213, 1.425]  z=[-0.0851908, 0.133308]</text>
<g stroke="#888" stroke-width="0.7" opacity="0.7">
<line x1="65.6214" y1="582.951" x2="63.0907" y2="547.025" />
<line x1="164.439" y1="575.99" x2="161.783" y2="540.073" />
<line x1="330.859" y1="563.096" x2="327.973" y2="527.197" />
<line x1="493.648" y1="549.525" x2="490.57" y2="513.643" />
<line x1="650.839" y1="535.646" x2="647.59" y2="499.778" />
<line x1="800.509" y1="521.771" x2="797.113" y2="485.918" />
<line x1="940.805" y1="508.201" x2="937.268" y2="472.361" />
<line x1="1069.96" y1="495.208" x2="1066.28" y2="459.382" />
<line x1="1186.31" y1="483.039" x2="1182.48" y2="447.228" />
<line x1="1288.29" y1="471.911" x2="1182.48" y2="447.228" />
<line x1="1374.46" y1="461.923" x2="1182.48" y2="447.228" />
<line x1="1443.83" y1="453.09" x2="1182.48" y2="447.228" />
<line x1="1495.68" y1="446.02" x2="1182.48" y2="447.228" />
<line x1="1528.56" y1="441.704" x2="1182.48" y2="447.228" />
<line x1="1540" y1="440.289" x2="1182.48" y2="447.228" />
<line x1="1527.9" y1="439.747" x2="1182.48" y2="447.228" />
<line x1="1492.76" y1="437.1" x2="1182.48" y2="447.228" />
<line x1="1437.04" y1="431.206" x2="1182.48" y2="447.228" />
<line x1="1362.5" y1="422.598" x2="1182.48" y2="447.228" />
<line x1="1269.9" y1="411.437" x2="1227.98" y2="442.264" />
<line x1="1160.54" y1="397.1" x2="1155.42" y2="432.749" />
<line x1="1036.58" y1="379.3" x2="1031.06" y2="414.89" />
<line x1="900.27" y1="358.194" x2="894.44" y2="393.733" />
<line x1="754.002" y1="334.198" x2="748.171" y2="369.737" />
<line x1="600.151" y1="307.971" x2="593.993" y2="343.455" />
<line x1="441.053" y1="280.361" x2="434.902" y2="315.846" />
<line x1="278.939" y1="252.348" x2="272.891" y2="287.851" />
<line x1="115.9" y1="224.995" x2="110.11" y2="260.541" />
<line x1="65.6214" y1="217.049" x2="60" y2="252.622" />
</g>
<polyline fill="none" stroke="#1f77b4" stroke-width="1.4" points="65.6214,582.951 164.439,575.99 330.859,563.096 493.648,549.525 650.839,535.646 800.509,521.771 940.805,508.201 1069.96,495.208 1186.31,483.039 1288.29,471.911 1374.46,461.923 1443.83,453.09 1495.68,446.02 1528.56,441.704 1540,440.289 1527.9,439.747 1492.76,437.1 1437.04,431.206 1362.5,422.598 1269.9,411.437 1160.54,397.1 1036.58,379.3 900.27,358.194 754.002,334.198 600.151,307.971 441.053,280.361 278.939,252.348 115.9,224.995 65.6214,217.049 " />
<polyline fill="none" stroke="#ff7f0e" stroke-width="1.4" points="63.0907,547.025 161.783,540.073 327.973,527.197 490.57,513.643 647.59,499.778 797.113,485.918 937.268,472.361 1066.28,459.382 1182.48,447.228 1227.98,442.264 1155.42,432.749 1031.06,414.89 894.44,393.733 748.171,369.737 593.993,343.455 434.902,315.846 272.891,287.851 110.11,260.541 60,252.622 " />
<circle cx="65.6214" cy="582.951" r="3" fill="#1f77b4" stroke="#0b3d61" stroke-width="0.5" />
<text x="69.6214" y="578.951" font-family="sans-serif" font-size="10" fill="#0b3d61">b0</text>
<circle cx="164.439" cy="575.99" r="3" fill="#1f77b4" stroke="#0b3d61" stroke-width="0.5" />
<text x="168.439" y="571.99" font-family="sans-serif" font-size="10" fill="#0b3d61">b1</text>
<circle cx="330.859" cy="563.096" r="3" fill="#1f77b4" stroke="#0b3d61" stroke-width="0.5" />
<text x="334.859" y="559.096" font-family="sans-serif" font-size="10" fill="#0b3d61">b2</text>
<circle cx="493.648" cy="549.525" r="3" fill="#1f77b4" stroke="#0b3d61" stroke-width="0.5" />
<text x="497.648" y="545.525" font-family="sans-serif" font-size="10" fill="#0b3d61">b3</text>
<circle cx="650.839" cy="535.646" r="3" fill="#1f77b4" stroke="#0b3d61" stroke-width="0.5" />
<text x="654.839" y="531.646" font-family="sans-serif" font-size="10" fill="#0b3d61">b4</text>
<circle cx="800.509" cy="521.771" r="3" fill="#1f77b4" stroke="#0b3d61" stroke-width="0.5" />
<text x="804.509" y="517.771" font-family="sans-serif" font-size="10" fill="#0b3d61">b5</text>
<circle cx="940.805" cy="508.201" r="3" fill="#1f77b4" stroke="#0b3d61" stroke-width="0.5" />
<text x="944.805" y="504.201" font-family="sans-serif" font-size="10" fill="#0b3d61">b6</text>
<circle cx="1069.96" cy="495.208" r="3" fill="#1f77b4" stroke="#0b3d61" stroke-width="0.5" />
<text x="1073.96" y="491.208" font-family="sans-serif" font-size="10" fill="#0b3d61">b7</text>
<circle cx="1186.31" cy="483.039" r="3" fill="#1f77b4" stroke="#0b3d61" stroke-width="0.5" />
<text x="1190.31" y="479.039" font-family="sans-serif" font-size="10" fill="#0b3d61">b8</text>
<circle cx="1288.29" cy="471.911" r="3" fill="#1f77b4" stroke="#0b3d61" stroke-width="0.5" />
<text x="1292.29" y="467.911" font-family="sans-serif" font-size="10" fill="#0b3d61">b9</text>
<circle cx="1374.46" cy="461.923" r="3" fill="#1f77b4" stroke="#0b3d61" stroke-width="0.5" />
<text x="1378.46" y="457.923" font-family="sans-serif" font-size="10" fill="#0b3d61">b10</text>
<circle cx="1443.83" cy="453.09" r="3" fill="#1f77b4" stroke="#0b3d61" stroke-width="0.5" />
<text x="1447.83" y="449.09" font-family="sans-serif" font-size="10" fill="#0b3d61">b11</text>
<circle cx="1495.68" cy="446.02" r="3" fill="#1f77b4" stroke="#0b3d61" stroke-width="0.5" />
<text x="1499.68" y="442.02" font-family="sans-serif" font-size="10" fill="#0b3d61">b12</text>
<circle cx="1528.56" cy="441.704" r="3" fill="#1f77b4" stroke="#0b3d61" stroke-width="0.5" />
<text x="1532.56" y="437.704" font-family="sans-serif" font-size="10" fill="#0b3d61">b13</text>
<circle cx="1540" cy="440.289" r="3" fill="#1f77b4" stroke="#0b3d61" stroke-width="0.5" />
<text x="1544" y="436.289" font-family="sans-serif" font-size="10" fill="#0b3d61">b14</text>
<circle cx="1527.9" cy="439.747" r="3" fill="#1f77b4" stroke="#0b3d61" stroke-width="0.5" />
<text x="1531.9" y="435.747" font-family="sans-serif" font-size="10" fill="#0b3d61">b15</text>
<circle cx="1492.76" cy="437.1" r="3" fill="#1f77b4" stroke="#0b3d61" stroke-width="0.5" />
<text x="1496.76" y="433.1" font-family="sans-serif" font-size="10" fill="#0b3d61">b16</text>
<circle cx="1437.04" cy="431.206" r="3" fill="#1f77b4" stroke="#0b3d61" stroke-width="0.5" />
<text x="1441.04" y="427.206" font-family="sans-serif" font-size="10" fill="#0b3d61">b17</text>
<circle cx="1362.5" cy="422.598" r="3" fill="#1f77b4" stroke="#0b3d61" stroke-width="0.5" />
<text x="1366.5" y="418.598" font-family="sans-serif" font-size="10" fill="#0b3d61">b18</text>
<circle cx="1269.9" cy="411.437" r="3" fill="#1f77b4" stroke="#0b3d61" stroke-width="0.5" />
<text x="1273.9" y="407.437" font-family="sans-serif" font-size="10" fill="#0b3d61">b19</text>
<circle cx="1160.54" cy="397.1" r="3" fill="#1f77b4" stroke="#0b3d61" stroke-width="0.5" />
<text x="1164.54" y="393.1" font-family="sans-serif" font-size="10" fill="#0b3d61">b20</text>
<circle cx="1036.58" cy="379.3" r="3" fill="#1f77b4" stroke="#0b3d61" stroke-width="0.5" />
<text x="1040.58" y="375.3" font-family="sans-serif" font-size="10" fill="#0b3d61">b21</text>
<circle cx="900.27" cy="358.194" r="3" fill="#1f77b4" stroke="#0b3d61" stroke-width="0.5" />
<text x="904.27" y="354.194" font-family="sans-serif" font-size="10" fill="#0b3d61">b22</text>
<circle cx="754.002" cy="334.198" r="3" fill="#1f77b4" stroke="#0b3d61" stroke-width="0.5" />
<text x="758.002" y="330.198" font-family="sans-serif" font-size="10" fill="#0b3d61">b23</text>
<circle cx="600.151" cy="307.971" r="3" fill="#1f77b4" stroke="#0b3d61" stroke-width="0.5" />
<text x="604.151" y="303.971" font-family="sans-serif" font-size="10" fill="#0b3d61">b24</text>
<circle cx="441.053" cy="280.361" r="3" fill="#1f77b4" stroke="#0b3d61" stroke-width="0.5" />
<text x="445.053" y="276.361" font-family="sans-serif" font-size="10" fill="#0b3d61">b25</text>
<circle cx="278.939" cy="252.348" r="3" fill="#1f77b4" stroke="#0b3d61" stroke-width="0.5" />
<text x="282.939" y="248.348" font-family="sans-serif" font-size="10" fill="#0b3d61">b26</text>
<circle cx="115.9" cy="224.995" r="3" fill="#1f77b4" stroke="#0b3d61" stroke-width="0.5" />
<text x="119.9" y="220.995" font-family="sans-serif" font-size="10" fill="#0b3d61">b27</text>
<circle cx="65.6214" cy="217.049" r="3" fill="#1f77b4" stroke="#0b3d61" stroke-width="0.5" />
<text x="69.6214" y="213.049" font-family="sans-serif" font-size="10" fill="#0b3d61">b28</text>
<circle cx="63.0907" cy="547.025" r="3" fill="#ff7f0e" stroke="#7a3d05" stroke-width="0.5" />
<text x="67.0907" y="559.025" font-family="sans-serif" font-size="10" fill="#7a3d05">o0</text>
<rect x="157.783" y="536.073" width="8" height="8" fill="none" stroke="#7a3d05" stroke-width="1.2" />
<text x="165.783" y="552.073" font-family="sans-serif" font-size="10" fill="#7a3d05">o1</text>
<rect x="323.973" y="523.197" width="8" height="8" fill="none" stroke="#7a3d05" stroke-width="1.2" />
<text x="331.973" y="539.197" font-family="sans-serif" font-size="10" fill="#7a3d05">o2</text>
<rect x="486.57" y="509.643" width="8" height="8" fill="none" stroke="#7a3d05" stroke-width="1.2" />
<text x="494.57" y="525.643" font-family="sans-serif" font-size="10" fill="#7a3d05">o3</text>
<rect x="643.59" y="495.778" width="8" height="8" fill="none" stroke="#7a3d05" stroke-width="1.2" />
<text x="651.59" y="511.778" font-family="sans-serif" font-size="10" fill="#7a3d05">o4</text>
<rect x="793.113" y="481.918" width="8" height="8" fill="none" stroke="#7a3d05" stroke-width="1.2" />
<text x="801.113" y="497.918" font-family="sans-serif" font-size="10" fill="#7a3d05">o5</text>
<rect x="933.268" y="468.361" width="8" height="8" fill="none" stroke="#7a3d05" stroke-width="1.2" />
<text x="941.268" y="484.361" font-family="sans-serif" font-size="10" fill="#7a3d05">o6</text>
<rect x="1062.28" y="455.382" width="8" height="8" fill="none" stroke="#7a3d05" stroke-width="1.2" />
<text x="1070.28" y="471.382" font-family="sans-serif" font-size="10" fill="#7a3d05">o7</text>
<rect x="1178.48" y="443.228" width="8" height="8" fill="none" stroke="#7a3d05" stroke-width="1.2" />
<text x="1186.48" y="459.228" font-family="sans-serif" font-size="10" fill="#7a3d05">o8</text>
<circle cx="1227.98" cy="442.264" r="3" fill="#ff7f0e" stroke="#7a3d05" stroke-width="0.5" />
<text x="1231.98" y="454.264" font-family="sans-serif" font-size="10" fill="#7a3d05">o9</text>
<rect x="1151.42" y="428.749" width="8" height="8" fill="none" stroke="#7a3d05" stroke-width="1.2" />
<text x="1159.42" y="444.749" font-family="sans-serif" font-size="10" fill="#7a3d05">o10</text>
<rect x="1027.06" y="410.89" width="8" height="8" fill="none" stroke="#7a3d05" stroke-width="1.2" />
<text x="1035.06" y="426.89" font-family="sans-serif" font-size="10" fill="#7a3d05">o11</text>
<rect x="890.44" y="389.733" width="8" height="8" fill="none" stroke="#7a3d05" stroke-width="1.2" />
<text x="898.44" y="405.733" font-family="sans-serif" font-size="10" fill="#7a3d05">o12</text>
<rect x="744.171" y="365.737" width="8" height="8" fill="none" stroke="#7a3d05" stroke-width="1.2" />
<text x="752.171" y="381.737" font-family="sans-serif" font-size="10" fill="#7a3d05">o13</text>
<rect x="589.993" y="339.455" width="8" height="8" fill="none" stroke="#7a3d05" stroke-width="1.2" />
<text x="597.993" y="355.455" font-family="sans-serif" font-size="10" fill="#7a3d05">o14</text>
<rect x="430.902" y="311.846" width="8" height="8" fill="none" stroke="#7a3d05" stroke-width="1.2" />
<text x="438.902" y="327.846" font-family="sans-serif" font-size="10" fill="#7a3d05">o15</text>
<rect x="268.891" y="283.851" width="8" height="8" fill="none" stroke="#7a3d05" stroke-width="1.2" />
<text x="276.891" y="299.851" font-family="sans-serif" font-size="10" fill="#7a3d05">o16</text>
<rect x="106.11" y="256.541" width="8" height="8" fill="none" stroke="#7a3d05" stroke-width="1.2" />
<text x="114.11" y="272.541" font-family="sans-serif" font-size="10" fill="#7a3d05">o17</text>
<rect x="56" y="248.622" width="8" height="8" fill="none" stroke="#7a3d05" stroke-width="1.2" />
<text x="64" y="264.622" font-family="sans-serif" font-size="10" fill="#7a3d05">o18</text>
<circle cx="63.0907" cy="547.025" r="1.8" fill="#e41a1c" stroke="#5a0606" stroke-width="0.5" />
<circle cx="161.783" cy="540.073" r="1.8" fill="#e41a1c" stroke="#5a0606" stroke-width="0.5" />
<circle cx="327.973" cy="527.197" r="1.8" fill="#e41a1c" stroke="#5a0606" stroke-width="0.5" />
<circle cx="490.57" cy="513.643" r="1.8" fill="#e41a1c" stroke="#5a0606" stroke-width="0.5" />
<circle cx="647.59" cy="499.778" r="1.8" fill="#e41a1c" stroke="#5a0606" stroke-width="0.5" />
<circle cx="797.113" cy="485.918" r="1.8" fill="#e41a1c" stroke="#5a0606" stroke-width="0.5" />
<circle cx="937.268" cy="472.361" r="1.8" fill="#e41a1c" stroke="#5a0606" stroke-width="0.5" />
<circle cx="1066.28" cy="459.382" r="1.8" fill="#e41a1c" stroke="#5a0606" stroke-width="0.5" />
<circle cx="1182.48" cy="447.228" r="1.8" fill="#e41a1c" stroke="#5a0606" stroke-width="0.5" />
<circle cx="1227.98" cy="442.264" r="1.8" fill="#e41a1c" stroke="#5a0606" stroke-width="0.5" />
<circle cx="1155.64" cy="432.78" r="1.8" fill="#e41a1c" stroke="#5a0606" stroke-width="0.5" />
<circle cx="1031.26" cy="414.921" r="1.8" fill="#e41a1c" stroke="#5a0606" stroke-width="0.5" />
<circle cx="894.599" cy="393.759" r="1.8" fill="#e41a1c" stroke="#5a0606" stroke-width="0.5" />
<circle cx="748.06" cy="369.719" r="1.8" fill="#e41a1c" stroke="#5a0606" stroke-width="0.5" />
<circle cx="594.046" cy="343.464" r="1.8" fill="#e41a1c" stroke="#5a0606" stroke-width="0.5" />
<circle cx="434.902" cy="315.846" r="1.8" fill="#e41a1c" stroke="#5a0606" stroke-width="0.5" />
<circle cx="272.891" cy="287.851" r="1.8" fill="#e41a1c" stroke="#5a0606" stroke-width="0.5" />
<circle cx="110.11" cy="260.541" r="1.8" fill="#e41a1c" stroke="#5a0606" stroke-width="0.5" />
<circle cx="60" cy="252.622" r="1.8" fill="#e41a1c" stroke="#5a0606" stroke-width="0.5" />
<g font-family="sans-serif" font-size="12">
<rect x="1350" y="12" width="230" height="142" fill="#fafafa" stroke="#ccc"/>
<line x1="1360" y1="30" x2="1384" y2="30" stroke="#1f77b4" stroke-width="2"/>
<circle cx="1372" cy="30" r="3" fill="#1f77b4" stroke="#0b3d61" stroke-width="0.5" />
<text x="1392" y="34" font-family="sans-serif" font-size="12" fill="#0b3d61">base vertex (b_i)</text>
<line x1="1360" y1="50" x2="1384" y2="50" stroke="#ff7f0e" stroke-width="2"/>
<text x="1392" y="54" font-family="sans-serif" font-size="12" fill="#7a3d05">offset curve</text>
<circle cx="1372" cy="70" r="3" fill="#ff7f0e" stroke="#7a3d05" stroke-width="0.5" />
<text x="1392" y="74" font-family="sans-serif" font-size="12" fill="#7a3d05">offset: raw Clipper2</text>
<rect x="1368" y="86" width="8" height="8" fill="white" stroke="#7a3d05" stroke-width="1.2" />
<text x="1392" y="94" font-family="sans-serif" font-size="12" fill="#7a3d05">offset: base-vertex resample</text>
<line x1="1360" y1="110" x2="1384" y2="110" stroke="#888" stroke-width="0.7"/>
<text x="1392" y="114" font-family="sans-serif" font-size="12" fill="#444">pair (b_i, o_j)</text>
<circle cx="1372" cy="130" r="1.8" fill="#e41a1c" stroke="#5a0606" stroke-width="0.5" />
<text x="1392" y="134" font-family="sans-serif" font-size="12" fill="#5a0606">raw vertex (pre-resample)</text>
</g>
</svg>
