<?xml version="1.0" encoding="UTF-8"?>
<svg xmlns="http://www.w3.org/2000/svg" viewBox="0 0 1800.0 700.0" width="1800.0" height="700.0">
<rect width="100%" height="100%" fill="white"/>
<text x="20" y="22" font-family="sans-serif" font-size="16" fill="#222">DP matcher prototype: seg_front_bottom</text>
<text x="40.0" y="35.0" font-family="sans-serif" font-size="13" fill="#444">production (planReverseMatch*)</text>
<g stroke="#888" stroke-width="0.7" opacity="0.7">
<line x1="40.06" y1="382.83" x2="40.00" y2="379.76" />
<line x1="54.12" y1="382.56" x2="54.06" y2="379.50" />
<line x1="91.89" y1="381.66" x2="91.81" y2="378.59" />
<line x1="129.66" y1="380.54" x2="129.55" y2="377.47" />
<line x1="167.42" y1="379.19" x2="167.31" y2="376.13" />
<line x1="205.19" y1="377.58" x2="205.05" y2="374.52" />
<line x1="242.96" y1="375.68" x2="242.79" y2="372.62" />
<line x1="280.73" y1="373.47" x2="280.53" y2="370.40" />
<line x1="318.46" y1="370.91" x2="318.24" y2="367.84" />
<line x1="350.28" y1="368.49" x2="350.03" y2="365.43" />
<line x1="375.57" y1="366.31" x2="375.29" y2="363.26" />
<line x1="400.74" y1="363.85" x2="400.42" y2="360.80" />
<line x1="425.92" y1="360.95" x2="425.54" y2="357.91" />
<line x1="451.10" y1="357.48" x2="450.63" y2="354.44" />
<line x1="476.28" y1="353.22" x2="475.71" y2="350.20" />
<line x1="499.61" y1="348.43" x2="498.93" y2="345.44" />
<line x1="518.84" y1="343.65" x2="518.04" y2="340.69" />
<line x1="534.47" y1="339.11" x2="533.57" y2="336.18" />
<line x1="549.58" y1="334.17" x2="548.58" y2="331.27" />
<line x1="564.69" y1="328.74" x2="563.62" y2="325.87" />
<line x1="579.79" y1="322.93" x2="578.64" y2="320.08" />
<line x1="586.67" y1="319.99" x2="585.46" y2="317.17" />
</g>
<polyline fill="none" stroke="#1f77b4" stroke-width="1.4" points="40.06,382.83 54.12,382.56 91.89,381.66 129.66,380.54 167.42,379.19 205.19,377.58 242.96,375.68 280.73,373.47 318.46,370.91 350.28,368.49 375.57,366.31 400.74,363.85 425.92,360.95 451.10,357.48 476.28,353.22 499.61,348.43 518.84,343.65 534.47,339.11 549.58,334.17 564.69,328.74 579.79,322.93 586.67,319.99"/>
<polyline fill="none" stroke="#ff7f0e" stroke-width="1.4" points="40.00,379.76 54.06,379.50 91.81,378.59 129.55,377.47 167.31,376.13 205.05,374.52 242.79,372.62 280.53,370.40 318.24,367.84 350.03,365.43 375.29,363.26 400.42,360.80 425.54,357.91 450.63,354.44 475.71,350.20 498.93,345.44 518.04,340.69 533.57,336.18 548.58,331.27 563.62,325.87 578.64,320.08 585.46,317.17"/>
<circle cx="40.06" cy="382.83" r="2.5" fill="#1f77b4" stroke="#0b3d61" stroke-width="0.5"/>
<text x="43.06" y="379.83" font-size="8" fill="#0b3d61">b0</text>
<circle cx="54.12" cy="382.56" r="2.5" fill="#1f77b4" stroke="#0b3d61" stroke-width="0.5"/>
<text x="57.12" y="379.56" font-size="8" fill="#0b3d61">b1</text>
<circle cx="91.89" cy="381.66" r="2.5" fill="#1f77b4" stroke="#0b3d61" stroke-width="0.5"/>
<text x="94.89" y="378.66" font-size="8" fill="#0b3d61">b2</text>
<circle cx="129.66" cy="380.54" r="2.5" fill="#1f77b4" stroke="#0b3d61" stroke-width="0.5"/>
<text x="132.66" y="377.54" font-size="8" fill="#0b3d61">b3</text>
<circle cx="167.42" cy="379.19" r="2.5" fill="#1f77b4" stroke="#0b3d61" stroke-width="0.5"/>
<text x="170.42" y="376.19" font-size="8" fill="#0b3d61">b4</text>
<circle cx="205.19" cy="377.58" r="2.5" fill="#1f77b4" stroke="#0b3d61" stroke-width="0.5"/>
<text x="208.19" y="374.58" font-size="8" fill="#0b3d61">b5</text>
<circle cx="242.96" cy="375.68" r="2.5" fill="#1f77b4" stroke="#0b3d61" stroke-width="0.5"/>
<text x="245.96" y="372.68" font-size="8" fill="#0b3d61">b6</text>
<circle cx="280.73" cy="373.47" r="2.5" fill="#1f77b4" stroke="#0b3d61" stroke-width="0.5"/>
<text x="283.73" y="370.47" font-size="8" fill="#0b3d61">b7</text>
<circle cx="318.46" cy="370.91" r="2.5" fill="#1f77b4" stroke="#0b3d61" stroke-width="0.5"/>
<text x="321.46" y="367.91" font-size="8" fill="#0b3d61">b8</text>
<circle cx="350.28" cy="368.49" r="2.5" fill="#1f77b4" stroke="#0b3d61" stroke-width="0.5"/>
<text x="353.28" y="365.49" font-size="8" fill="#0b3d61">b9</text>
<circle cx="375.57" cy="366.31" r="2.5" fill="#1f77b4" stroke="#0b3d61" stroke-width="0.5"/>
<text x="378.57" y="363.31" font-size="8" fill="#0b3d61">b10</text>
<circle cx="400.74" cy="363.85" r="2.5" fill="#1f77b4" stroke="#0b3d61" stroke-width="0.5"/>
<text x="403.74" y="360.85" font-size="8" fill="#0b3d61">b11</text>
<circle cx="425.92" cy="360.95" r="2.5" fill="#1f77b4" stroke="#0b3d61" stroke-width="0.5"/>
<text x="428.92" y="357.95" font-size="8" fill="#0b3d61">b12</text>
<circle cx="451.10" cy="357.48" r="2.5" fill="#1f77b4" stroke="#0b3d61" stroke-width="0.5"/>
<text x="454.10" y="354.48" font-size="8" fill="#0b3d61">b13</text>
<circle cx="476.28" cy="353.22" r="2.5" fill="#1f77b4" stroke="#0b3d61" stroke-width="0.5"/>
<text x="479.28" y="350.22" font-size="8" fill="#0b3d61">b14</text>
<circle cx="499.61" cy="348.43" r="2.5" fill="#1f77b4" stroke="#0b3d61" stroke-width="0.5"/>
<text x="502.61" y="345.43" font-size="8" fill="#0b3d61">b15</text>
<circle cx="518.84" cy="343.65" r="2.5" fill="#1f77b4" stroke="#0b3d61" stroke-width="0.5"/>
<text x="521.84" y="340.65" font-size="8" fill="#0b3d61">b16</text>
<circle cx="534.47" cy="339.11" r="2.5" fill="#1f77b4" stroke="#0b3d61" stroke-width="0.5"/>
<text x="537.47" y="336.11" font-size="8" fill="#0b3d61">b17</text>
<circle cx="549.58" cy="334.17" r="2.5" fill="#1f77b4" stroke="#0b3d61" stroke-width="0.5"/>
<text x="552.58" y="331.17" font-size="8" fill="#0b3d61">b18</text>
<circle cx="564.69" cy="328.74" r="2.5" fill="#1f77b4" stroke="#0b3d61" stroke-width="0.5"/>
<text x="567.69" y="325.74" font-size="8" fill="#0b3d61">b19</text>
<circle cx="579.79" cy="322.93" r="2.5" fill="#1f77b4" stroke="#0b3d61" stroke-width="0.5"/>
<text x="582.79" y="319.93" font-size="8" fill="#0b3d61">b20</text>
<circle cx="586.67" cy="319.99" r="2.5" fill="#1f77b4" stroke="#0b3d61" stroke-width="0.5"/>
<text x="589.67" y="316.99" font-size="8" fill="#0b3d61">b21</text>
<circle cx="40.00" cy="379.76" r="2.5" fill="#ff7f0e" stroke="#7a3d05" stroke-width="0.5"/>
<circle cx="54.06" cy="379.50" r="2.5" fill="#ff7f0e" stroke="#7a3d05" stroke-width="0.5"/>
<circle cx="91.81" cy="378.59" r="2.5" fill="#ff7f0e" stroke="#7a3d05" stroke-width="0.5"/>
<circle cx="129.55" cy="377.47" r="2.5" fill="#ff7f0e" stroke="#7a3d05" stroke-width="0.5"/>
<circle cx="167.31" cy="376.13" r="2.5" fill="#ff7f0e" stroke="#7a3d05" stroke-width="0.5"/>
<circle cx="205.05" cy="374.52" r="2.5" fill="#ff7f0e" stroke="#7a3d05" stroke-width="0.5"/>
<circle cx="242.79" cy="372.62" r="2.5" fill="#ff7f0e" stroke="#7a3d05" stroke-width="0.5"/>
<circle cx="280.53" cy="370.40" r="2.5" fill="#ff7f0e" stroke="#7a3d05" stroke-width="0.5"/>
<circle cx="318.24" cy="367.84" r="2.5" fill="#ff7f0e" stroke="#7a3d05" stroke-width="0.5"/>
<circle cx="350.03" cy="365.43" r="2.5" fill="#ff7f0e" stroke="#7a3d05" stroke-width="0.5"/>
<circle cx="375.29" cy="363.26" r="2.5" fill="#ff7f0e" stroke="#7a3d05" stroke-width="0.5"/>
<circle cx="400.42" cy="360.80" r="2.5" fill="#ff7f0e" stroke="#7a3d05" stroke-width="0.5"/>
<circle cx="425.54" cy="357.91" r="2.5" fill="#ff7f0e" stroke="#7a3d05" stroke-width="0.5"/>
<circle cx="450.63" cy="354.44" r="2.5" fill="#ff7f0e" stroke="#7a3d05" stroke-width="0.5"/>
<circle cx="475.71" cy="350.20" r="2.5" fill="#ff7f0e" stroke="#7a3d05" stroke-width="0.5"/>
<circle cx="498.93" cy="345.44" r="2.5" fill="#ff7f0e" stroke="#7a3d05" stroke-width="0.5"/>
<circle cx="518.04" cy="340.69" r="2.5" fill="#ff7f0e" stroke="#7a3d05" stroke-width="0.5"/>
<circle cx="533.57" cy="336.18" r="2.5" fill="#ff7f0e" stroke="#7a3d05" stroke-width="0.5"/>
<circle cx="548.58" cy="331.27" r="2.5" fill="#ff7f0e" stroke="#7a3d05" stroke-width="0.5"/>
<circle cx="563.62" cy="325.87" r="2.5" fill="#ff7f0e" stroke="#7a3d05" stroke-width="0.5"/>
<circle cx="578.64" cy="320.08" r="2.5" fill="#ff7f0e" stroke="#7a3d05" stroke-width="0.5"/>
<circle cx="585.46" cy="317.17" r="2.5" fill="#ff7f0e" stroke="#7a3d05" stroke-width="0.5"/>
<text x="626.6666666666666" y="35.0" font-family="sans-serif" font-size="13" fill="#444">DP (this prototype)</text>
<g stroke="#888" stroke-width="0.7" opacity="0.7">
<line x1="626.73" y1="382.83" x2="626.67" y2="379.76" />
<line x1="640.79" y1="382.56" x2="640.73" y2="379.50" />
<line x1="678.56" y1="381.66" x2="678.47" y2="378.59" />
<line x1="716.32" y1="380.54" x2="716.22" y2="377.47" />
<line x1="754.09" y1="379.19" x2="753.97" y2="376.13" />
<line x1="791.86" y1="377.58" x2="791.72" y2="374.52" />
<line x1="829.63" y1="375.68" x2="829.46" y2="372.62" />
<line x1="867.39" y1="373.47" x2="867.20" y2="370.40" />
<line x1="905.13" y1="370.91" x2="904.91" y2="367.84" />
<line x1="936.94" y1="368.49" x2="936.69" y2="365.43" />
<line x1="962.23" y1="366.31" x2="961.95" y2="363.26" />
<line x1="987.41" y1="363.85" x2="987.09" y2="360.80" />
<line x1="1012.59" y1="360.95" x2="1012.20" y2="357.91" />
<line x1="1037.77" y1="357.48" x2="1037.30" y2="354.44" />
<line x1="1062.94" y1="353.22" x2="1062.38" y2="350.20" />
<line x1="1086.28" y1="348.43" x2="1085.60" y2="345.44" />
<line x1="1105.51" y1="343.65" x2="1104.71" y2="340.69" />
<line x1="1121.14" y1="339.11" x2="1120.23" y2="336.18" />
<line x1="1136.25" y1="334.17" x2="1135.25" y2="331.27" />
<line x1="1151.35" y1="328.74" x2="1150.28" y2="325.87" />
<line x1="1166.46" y1="322.93" x2="1165.30" y2="320.08" />
<line x1="1173.33" y1="319.99" x2="1172.13" y2="317.17" />
</g>
<polyline fill="none" stroke="#1f77b4" stroke-width="1.4" points="626.73,382.83 640.79,382.56 678.56,381.66 716.32,380.54 754.09,379.19 791.86,377.58 829.63,375.68 867.39,373.47 905.13,370.91 936.94,368.49 962.23,366.31 987.41,363.85 1012.59,360.95 1037.77,357.48 1062.94,353.22 1086.28,348.43 1105.51,343.65 1121.14,339.11 1136.25,334.17 1151.35,328.74 1166.46,322.93 1173.33,319.99"/>
<polyline fill="none" stroke="#ff7f0e" stroke-width="1.4" points="626.67,379.76 640.73,379.50 678.47,378.59 716.22,377.47 753.97,376.13 791.72,374.52 829.46,372.62 867.20,370.40 904.91,367.84 936.69,365.43 961.95,363.26 987.09,360.80 1012.20,357.91 1037.30,354.44 1062.38,350.20 1085.60,345.44 1104.71,340.69 1120.23,336.18 1135.25,331.27 1150.28,325.87 1165.30,320.08 1172.13,317.17"/>
<circle cx="626.73" cy="382.83" r="2.5" fill="#1f77b4" stroke="#0b3d61" stroke-width="0.5"/>
<circle cx="640.79" cy="382.56" r="2.5" fill="#1f77b4" stroke="#0b3d61" stroke-width="0.5"/>
<circle cx="678.56" cy="381.66" r="2.5" fill="#1f77b4" stroke="#0b3d61" stroke-width="0.5"/>
<circle cx="716.32" cy="380.54" r="2.5" fill="#1f77b4" stroke="#0b3d61" stroke-width="0.5"/>
<circle cx="754.09" cy="379.19" r="2.5" fill="#1f77b4" stroke="#0b3d61" stroke-width="0.5"/>
<circle cx="791.86" cy="377.58" r="2.5" fill="#1f77b4" stroke="#0b3d61" stroke-width="0.5"/>
<circle cx="829.63" cy="375.68" r="2.5" fill="#1f77b4" stroke="#0b3d61" stroke-width="0.5"/>
<circle cx="867.39" cy="373.47" r="2.5" fill="#1f77b4" stroke="#0b3d61" stroke-width="0.5"/>
<circle cx="905.13" cy="370.91" r="2.5" fill="#1f77b4" stroke="#0b3d61" stroke-width="0.5"/>
<circle cx="936.94" cy="368.49" r="2.5" fill="#1f77b4" stroke="#0b3d61" stroke-width="0.5"/>
<circle cx="962.23" cy="366.31" r="2.5" fill="#1f77b4" stroke="#0b3d61" stroke-width="0.5"/>
<circle cx="987.41" cy="363.85" r="2.5" fill="#1f77b4" stroke="#0b3d61" stroke-width="0.5"/>
<circle cx="1012.59" cy="360.95" r="2.5" fill="#1f77b4" stroke="#0b3d61" stroke-width="0.5"/>
<circle cx="1037.77" cy="357.48" r="2.5" fill="#1f77b4" stroke="#0b3d61" stroke-width="0.5"/>
<circle cx="1062.94" cy="353.22" r="2.5" fill="#1f77b4" stroke="#0b3d61" stroke-width="0.5"/>
<circle cx="1086.28" cy="348.43" r="2.5" fill="#1f77b4" stroke="#0b3d61" stroke-width="0.5"/>
<circle cx="1105.51" cy="343.65" r="2.5" fill="#1f77b4" stroke="#0b3d61" stroke-width="0.5"/>
<circle cx="1121.14" cy="339.11" r="2.5" fill="#1f77b4" stroke="#0b3d61" stroke-width="0.5"/>
<circle cx="1136.25" cy="334.17" r="2.5" fill="#1f77b4" stroke="#0b3d61" stroke-width="0.5"/>
<circle cx="1151.35" cy="328.74" r="2.5" fill="#1f77b4" stroke="#0b3d61" stroke-width="0.5"/>
<circle cx="1166.46" cy="322.93" r="2.5" fill="#1f77b4" stroke="#0b3d61" stroke-width="0.5"/>
<circle cx="1173.33" cy="319.99" r="2.5" fill="#1f77b4" stroke="#0b3d61" stroke-width="0.5"/>
<circle cx="626.67" cy="379.76" r="2.5" fill="#ff7f0e" stroke="#7a3d05" stroke-width="0.5"/>
<circle cx="640.73" cy="379.50" r="2.5" fill="#ff7f0e" stroke="#7a3d05" stroke-width="0.5"/>
<circle cx="678.47" cy="378.59" r="2.5" fill="#ff7f0e" stroke="#7a3d05" stroke-width="0.5"/>
<circle cx="716.22" cy="377.47" r="2.5" fill="#ff7f0e" stroke="#7a3d05" stroke-width="0.5"/>
<circle cx="753.97" cy="376.13" r="2.5" fill="#ff7f0e" stroke="#7a3d05" stroke-width="0.5"/>
<circle cx="791.72" cy="374.52" r="2.5" fill="#ff7f0e" stroke="#7a3d05" stroke-width="0.5"/>
<circle cx="829.46" cy="372.62" r="2.5" fill="#ff7f0e" stroke="#7a3d05" stroke-width="0.5"/>
<circle cx="867.20" cy="370.40" r="2.5" fill="#ff7f0e" stroke="#7a3d05" stroke-width="0.5"/>
<circle cx="904.91" cy="367.84" r="2.5" fill="#ff7f0e" stroke="#7a3d05" stroke-width="0.5"/>
<circle cx="936.69" cy="365.43" r="2.5" fill="#ff7f0e" stroke="#7a3d05" stroke-width="0.5"/>
<circle cx="961.95" cy="363.26" r="2.5" fill="#ff7f0e" stroke="#7a3d05" stroke-width="0.5"/>
<circle cx="987.09" cy="360.80" r="2.5" fill="#ff7f0e" stroke="#7a3d05" stroke-width="0.5"/>
<circle cx="1012.20" cy="357.91" r="2.5" fill="#ff7f0e" stroke="#7a3d05" stroke-width="0.5"/>
<circle cx="1037.30" cy="354.44" r="2.5" fill="#ff7f0e" stroke="#7a3d05" stroke-width="0.5"/>
<circle cx="1062.38" cy="350.20" r="2.5" fill="#ff7f0e" stroke="#7a3d05" stroke-width="0.5"/>
<circle cx="1085.60" cy="345.44" r="2.5" fill="#ff7f0e" stroke="#7a3d05" stroke-width="0.5"/>
<circle cx="1104.71" cy="340.69" r="2.5" fill="#ff7f0e" stroke="#7a3d05" stroke-width="0.5"/>
<circle cx="1120.23" cy="336.18" r="2.5" fill="#ff7f0e" stroke="#7a3d05" stroke-width="0.5"/>
<circle cx="1135.25" cy="331.27" r="2.5" fill="#ff7f0e" stroke="#7a3d05" stroke-width="0.5"/>
<circle cx="1150.28" cy="325.87" r="2.5" fill="#ff7f0e" stroke="#7a3d05" stroke-width="0.5"/>
<circle cx="1165.30" cy="320.08" r="2.5" fill="#ff7f0e" stroke="#7a3d05" stroke-width="0.5"/>
<circle cx="1172.13" cy="317.17" r="2.5" fill="#ff7f0e" stroke="#7a3d05" stroke-width="0.5"/>
<text x="1213.3333333333333" y="35.0" font-family="sans-serif" font-size="13" fill="#444">nearest (Python port reference)</text>
<g stroke="#888" stroke-width="0.7" opacity="0.7">
<line x1="1213.39" y1="382.83" x2="1213.33" y2="379.76" />
<line x1="1227.46" y1="382.56" x2="1227.39" y2="379.50" />
<line x1="1265.22" y1="381.66" x2="1265.14" y2="378.59" />
<line x1="1302.99" y1="380.54" x2="1302.88" y2="377.47" />
<line x1="1340.76" y1="379.19" x2="1340.64" y2="376.13" />
<line x1="1378.53" y1="377.58" x2="1378.38" y2="374.52" />
<line x1="1416.29" y1="375.68" x2="1416.13" y2="372.62" />
<line x1="1454.06" y1="373.47" x2="1453.87" y2="370.40" />
<line x1="1491.79" y1="370.91" x2="1491.58" y2="367.84" />
<line x1="1523.61" y1="368.49" x2="1523.36" y2="365.43" />
<line x1="1548.90" y1="366.31" x2="1548.62" y2="363.26" />
<line x1="1574.08" y1="363.85" x2="1573.75" y2="360.80" />
<line x1="1599.26" y1="360.95" x2="1598.87" y2="357.91" />
<line x1="1624.43" y1="357.48" x2="1623.97" y2="354.44" />
<line x1="1649.61" y1="353.22" x2="1649.05" y2="350.20" />
<line x1="1672.94" y1="348.43" x2="1672.27" y2="345.44" />
<line x1="1692.17" y1="343.65" x2="1691.38" y2="340.69" />
<line x1="1707.80" y1="339.11" x2="1706.90" y2="336.18" />
<line x1="1722.91" y1="334.17" x2="1721.92" y2="331.27" />
<line x1="1738.02" y1="328.74" x2="1736.95" y2="325.87" />
<line x1="1753.12" y1="322.93" x2="1751.97" y2="320.08" />
<line x1="1760.00" y1="319.99" x2="1758.79" y2="317.17" />
</g>
<polyline fill="none" stroke="#1f77b4" stroke-width="1.4" points="1213.39,382.83 1227.46,382.56 1265.22,381.66 1302.99,380.54 1340.76,379.19 1378.53,377.58 1416.29,375.68 1454.06,373.47 1491.79,370.91 1523.61,368.49 1548.90,366.31 1574.08,363.85 1599.26,360.95 1624.43,357.48 1649.61,353.22 1672.94,348.43 1692.17,343.65 1707.80,339.11 1722.91,334.17 1738.02,328.74 1753.12,322.93 1760.00,319.99"/>
<polyline fill="none" stroke="#ff7f0e" stroke-width="1.4" points="1213.33,379.76 1227.39,379.50 1265.14,378.59 1302.88,377.47 1340.64,376.13 1378.38,374.52 1416.13,372.62 1453.87,370.40 1491.58,367.84 1523.36,365.43 1548.62,363.26 1573.75,360.80 1598.87,357.91 1623.97,354.44 1649.05,350.20 1672.27,345.44 1691.38,340.69 1706.90,336.18 1721.92,331.27 1736.95,325.87 1751.97,320.08 1758.79,317.17"/>
<circle cx="1213.39" cy="382.83" r="2.5" fill="#1f77b4" stroke="#0b3d61" stroke-width="0.5"/>
<circle cx="1227.46" cy="382.56" r="2.5" fill="#1f77b4" stroke="#0b3d61" stroke-width="0.5"/>
<circle cx="1265.22" cy="381.66" r="2.5" fill="#1f77b4" stroke="#0b3d61" stroke-width="0.5"/>
<circle cx="1302.99" cy="380.54" r="2.5" fill="#1f77b4" stroke="#0b3d61" stroke-width="0.5"/>
<circle cx="1340.76" cy="379.19" r="2.5" fill="#1f77b4" stroke="#0b3d61" stroke-width="0.5"/>
<circle cx="1378.53" cy="377.58" r="2.5" fill="#1f77b4" stroke="#0b3d61" stroke-width="0.5"/>
<circle cx="1416.29" cy="375.68" r="2.5" fill="#1f77b4" stroke="#0b3d61" stroke-width="0.5"/>
<circle cx="1454.06" cy="373.47" r="2.5" fill="#1f77b4" stroke="#0b3d61" stroke-width="0.5"/>
<circle cx="1491.79" cy="370.91" r="2.5" fill="#1f77b4" stroke="#0b3d61" stroke-width="0.5"/>
<circle cx="1523.61" cy="368.49" r="2.5" fill="#1f77b4" stroke="#0b3d61" stroke-width="0.5"/>
<circle cx="1548.90" cy="366.31" r="2.5" fill="#1f77b4" stroke="#0b3d61" stroke-width="0.5"/>
<circle cx="1574.08" cy="363.85" r="2.5" fill="#1f77b4" stroke="#0b3d61" stroke-width="0.5"/>
<circle cx="1599.26" cy="360.95" r="2.5" fill="#1f77b4" stroke="#0b3d61" stroke-width="0.5"/>
<circle cx="1624.43" cy="357.48" r="2.5" fill="#1f77b4" stroke="#0b3d61" stroke-width="0.5"/>
<circle cx="1649.61" cy="353.22" r="2.5" fill="#1f77b4" stroke="#0b3d61" stroke-width="0.5"/>
<circle cx="1672.94" cy="348.43" r="2.5" fill="#1f77b4" stroke="#0b3d61" stroke-width="0.5"/>
<circle cx="1692.17" cy="343.65" r="2.5" fill="#1f77b4" stroke="#0b3d61" stroke-width="0.5"/>
<circle cx="1707.80" cy="339.11" r="2.5" fill="#1f77b4" stroke="#0b3d61" stroke-width="0.5"/>
<circle cx="1722.91" cy="334.17" r="2.5" fill="#1f77b4" stroke="#0b3d61" stroke-width="0.5"/>
<circle cx="1738.02" cy="328.74" r="2.5" fill="#1f77b4" stroke="#0b3d61" stroke-width="0.5"/>
<circle cx="1753.12" cy="322.93" r="2.5" fill="#1f77b4" stroke="#0b3d61" stroke-width="0.5"/>
<circle cx="1760.00" cy="319.99" r="2.5" fill="#1f77b4" stroke="#0b3d61" stroke-width="0.5"/>
<circle cx="1213.33" cy="379.76" r="2.5" fill="#ff7f0e" stroke="#7a3d05" stroke-width="0.5"/>
<circle cx="1227.39" cy="379.50" r="2.5" fill="#ff7f0e" stroke="#7a3d05" stroke-width="0.5"/>
<circle cx="1265.14" cy="378.59" r="2.5" fill="#ff7f0e" stroke="#7a3d05" stroke-width="0.5"/>
<circle cx="1302.88" cy="377.47" r="2.5" fill="#ff7f0e" stroke="#7a3d05" stroke-width="0.5"/>
<circle cx="1340.64" cy="376.13" r="2.5" fill="#ff7f0e" stroke="#7a3d05" stroke-width="0.5"/>
<circle cx="1378.38" cy="374.52" r="2.5" fill="#ff7f0e" stroke="#7a3d05" stroke-width="0.5"/>
<circle cx="1416.13" cy="372.62" r="2.5" fill="#ff7f0e" stroke="#7a3d05" stroke-width="0.5"/>
<circle cx="1453.87" cy="370.40" r="2.5" fill="#ff7f0e" stroke="#7a3d05" stroke-width="0.5"/>
<circle cx="1491.58" cy="367.84" r="2.5" fill="#ff7f0e" stroke="#7a3d05" stroke-width="0.5"/>
<circle cx="1523.36" cy="365.43" r="2.5" fill="#ff7f0e" stroke="#7a3d05" stroke-width="0.5"/>
<circle cx="1548.62" cy="363.26" r="2.5" fill="#ff7f0e" stroke="#7a3d05" stroke-width="0.5"/>
<circle cx="1573.75" cy="360.80" r="2.5" fill="#ff7f0e" stroke="#7a3d05" stroke-width="0.5"/>
<circle cx="1598.87" cy="357.91" r="2.5" fill="#ff7f0e" stroke="#7a3d05" stroke-width="0.5"/>
<circle cx="1623.97" cy="354.44" r="2.5" fill="#ff7f0e" stroke="#7a3d05" stroke-width="0.5"/>
<circle cx="1649.05" cy="350.20" r="2.5" fill="#ff7f0e" stroke="#7a3d05" stroke-width="0.5"/>
<circle cx="1672.27" cy="345.44" r="2.5" fill="#ff7f0e" stroke="#7a3d05" stroke-width="0.5"/>
<circle cx="1691.38" cy="340.69" r="2.5" fill="#ff7f0e" stroke="#7a3d05" stroke-width="0.5"/>
<circle cx="1706.90" cy="336.18" r="2.5" fill="#ff7f0e" stroke="#7a3d05" stroke-width="0.5"/>
<circle cx="1721.92" cy="331.27" r="2.5" fill="#ff7f0e" stroke="#7a3d05" stroke-width="0.5"/>
<circle cx="1736.95" cy="325.87" r="2.5" fill="#ff7f0e" stroke="#7a3d05" stroke-width="0.5"/>
<circle cx="1751.97" cy="320.08" r="2.5" fill="#ff7f0e" stroke="#7a3d05" stroke-width="0.5"/>
<circle cx="1758.79" cy="317.17" r="2.5" fill="#ff7f0e" stroke="#7a3d05" stroke-width="0.5"/>
</svg>