<?xml version="1.0" encoding="UTF-8"?>
<svg xmlns="http://www.w3.org/2000/svg" viewBox="0 0 1600 800" width="1600" height="800">
<rect width="100%" height="100%" fill="white"/>
<text x="60" y="24" font-family="sans-serif" font-size="18" fill="#222">base-offset map: sg_te</text>
<text x="60" y="44" font-family="sans-serif" font-size="12" fill="#555">base verts = 18,  offset verts = 18 (raw 18 / resampled 0),  pre-resample raw = 0,  pairs = 18,  bbox y=[1.04171, 1.425]  z=[-0.0427002, 0.0487112]</text>
<g stroke="#888" stroke-width="0.7" opacity="0.7">
<line x1="72.7071" y1="576.483" x2="64.7123" y2="493.828" />
<line x1="158.402" y1="568.194" x2="150.084" y2="485.57" />
<line x1="456.201" y1="538.236" x2="447.837" y2="486.585" />
<line x1="724.466" y1="510.175" x2="722.304" y2="489.528" />
<line x1="959.609" y1="484.519" x2="957.288" y2="463.888" />
<line x1="1158.3" y1="461.487" x2="1155.8" y2="440.878" />
<line x1="1318.25" y1="441.121" x2="1315.54" y2="420.539" />
<line x1="1437.8" y1="424.819" x2="1435.05" y2="404.243" />
<line x1="1513.62" y1="414.868" x2="1511" y2="394.274" />
<line x1="1540" y1="411.605" x2="1538.26" y2="411.673" />
<line x1="1512.09" y1="410.355" x2="1510.85" y2="431.08" />
<line x1="1431.07" y1="404.253" x2="1429.19" y2="424.931" />
<line x1="1302.61" y1="390.661" x2="1300.32" y2="411.296" />
<line x1="1130.73" y1="370.814" x2="1128.3" y2="391.432" />
<line x1="917.205" y1="345.08" x2="914.613" y2="365.678" />
<line x1="665.065" y1="312.023" x2="662.24" y2="332.59" />
<line x1="379.225" y1="270.98" x2="376.041" y2="291.496" />
<line x1="72.7071" y1="223.517" x2="60" y2="305.58" />
</g>
<polyline fill="none" stroke="#1f77b4" stroke-width="1.4" points="72.7071,576.483 158.402,568.194 456.201,538.236 724.466,510.175 959.609,484.519 1158.3,461.487 1318.25,441.121 1437.8,424.819 1513.62,414.868 1540,411.605 1512.09,410.355 1431.07,404.253 1302.61,390.661 1130.73,370.814 917.205,345.08 665.065,312.023 379.225,270.98 72.7071,223.517 " />
<polyline fill="none" stroke="#ff7f0e" stroke-width="1.4" points="64.7123,493.828 150.084,485.57 447.837,486.585 722.304,489.528 957.288,463.888 1155.8,440.878 1315.54,420.539 1435.05,404.243 1511,394.274 1538.26,411.673 1510.85,431.08 1429.19,424.931 1300.32,411.296 1128.3,391.432 914.613,365.678 662.24,332.59 376.041,291.496 60,305.58 " />
<circle cx="72.7071" cy="576.483" r="3" fill="#1f77b4" stroke="#0b3d61" stroke-width="0.5" />
<text x="76.7071" y="572.483" font-family="sans-serif" font-size="10" fill="#0b3d61">b0</text>
<circle cx="158.402" cy="568.194" r="3" fill="#1f77b4" stroke="#0b3d61" stroke-width="0.5" />
<text x="162.402" y="564.194" font-family="sans-serif" font-size="10" fill="#0b3d61">b1</text>
<circle cx="456.201" cy="538.236" r="3" fill="#1f77b4" stroke="#0b3d61" stroke-width="0.5" />
<text x="460.201" y="534.236" font-family="sans-serif" font-size="10" fill="#0b3d61">b2</text>
<circle cx="724.466" cy="510.175" r="3" fill="#1f77b4" stroke="#0b3d61" stroke-width="0.5" />
<text x="728.466" y="506.175" font-family="sans-serif" font-size="10" fill="#0b3d61">b3</text>
<circle cx="959.609" cy="484.519" r="3" fill="#1f77b4" stroke="#0b3d61" stroke-width="0.5" />
<text x="963.609" y="480.519" font-family="sans-serif" font-size="10" fill="#0b3d61">b4</text>
<circle cx="1158.3" cy="461.487" r="3" fill="#1f77b4" stroke="#0b3d61" stroke-width="0.5" />
<text x="1162.3" y="457.487" font-family="sans-serif" font-size="10" fill="#0b3d61">b5</text>
<circle cx="1318.25" cy="441.121" r="3" fill="#1f77b4" stroke="#0b3d61" stroke-width="0.5" />
<text x="1322.25" y="437.121" font-family="sans-serif" font-size="10" fill="#0b3d61">b6</text>
<circle cx="1437.8" cy="424.819" r="3" fill="#1f77b4" stroke="#0b3d61" stroke-width="0.5" />
<text x="1441.8" y="420.819" font-family="sans-serif" font-size="10" fill="#0b3d61">b7</text>
<circle cx="1513.62" cy="414.868" r="3" fill="#1f77b4" stroke="#0b3d61" stroke-width="0.5" />
<text x="1517.62" y="410.868" font-family="sans-serif" font-size="10" fill="#0b3d61">b8</text>
<circle cx="1540" cy="411.605" r="3" fill="#1f77b4" stroke="#0b3d61" stroke-width="0.5" />
<text x="1544" y="407.605" font-family="sans-serif" font-size="10" fill="#0b3d61">b9</text>
<circle cx="1512.09" cy="410.355" r="3" fill="#1f77b4" stroke="#0b3d61" stroke-width="0.5" />
<text x="1516.09" y="406.355" font-family="sans-serif" font-size="10" fill="#0b3d61">b10</text>
<circle cx="1431.07" cy="404.253" r="3" fill="#1f77b4" stroke="#0b3d61" stroke-width="0.5" />
<text x="1435.07" y="400.253" font-family="sans-serif" font-size="10" fill="#0b3d61">b11</text>
<circle cx="1302.61" cy="390.661" r="3" fill="#1f77b4" stroke="#0b3d61" stroke-width="0.5" />
<text x="1306.61" y="386.661" font-family="sans-serif" font-size="10" fill="#0b3d61">b12</text>
<circle cx="1130.73" cy="370.814" r="3" fill="#1f77b4" stroke="#0b3d61" stroke-width="0.5" />
<text x="1134.73" y="366.814" font-family="sans-serif" font-size="10" fill="#0b3d61">b13</text>
<circle cx="917.205" cy="345.08" r="3" fill="#1f77b4" stroke="#0b3d61" stroke-width="0.5" />
<text x="921.205" y="341.08" font-family="sans-serif" font-size="10" fill="#0b3d61">b14</text>
<circle cx="665.065" cy="312.023" r="3" fill="#1f77b4" stroke="#0b3d61" stroke-width="0.5" />
<text x="669.065" y="308.023" font-family="sans-serif" font-size="10" fill="#0b3d61">b15</text>
<circle cx="379.225" cy="270.98" r="3" fill="#1f77b4" stroke="#0b3d61" stroke-width="0.5" />
<text x="383.225" y="266.98" font-family="sans-serif" font-size="10" fill="#0b3d61">b16</text>
<circle cx="72.7071" cy="223.517" r="3" fill="#1f77b4" stroke="#0b3d61" stroke-width="0.5" />
<text x="76.7071" y="219.517" font-family="sans-serif" font-size="10" fill="#0b3d61">b17</text>
<circle cx="64.7123" cy="493.828" r="3" fill="#ff7f0e" stroke="#7a3d05" stroke-width="0.5" />
<text x="68.7123" y="505.828" font-family="sans-serif" font-size="10" fill="#7a3d05">o0</text>
<circle cx="150.084" cy="485.57" r="3" fill="#ff7f0e" stroke="#7a3d05" stroke-width="0.5" />
<text x="154.084" y="497.57" font-family="sans-serif" font-size="10" fill="#7a3d05">o1</text>
<circle cx="447.837" cy="486.585" r="3" fill="#ff7f0e" stroke="#7a3d05" stroke-width="0.5" />
<text x="451.837" y="498.585" font-family="sans-serif" font-size="10" fill="#7a3d05">o2</text>
<circle cx="722.304" cy="489.528" r="3" fill="#ff7f0e" stroke="#7a3d05" stroke-width="0.5" />
<text x="726.304" y="501.528" font-family="sans-serif" font-size="10" fill="#7a3d05">o3</text>
<circle cx="957.288" cy="463.888" r="3" fill="#ff7f0e" stroke="#7a3d05" stroke-width="0.5" />
<text x="961.288" y="475.888" font-family="sans-serif" font-size="10" fill="#7a3d05">o4</text>
<circle cx="1155.8" cy="440.878" r="3" fill="#ff7f0e" stroke="#7a3d05" stroke-width="0.5" />
<text x="1159.8" y="452.878" font-family="sans-serif" font-size="10" fill="#7a3d05">o5</text>
<circle cx="1315.54" cy="420.539" r="3" fill="#ff7f0e" stroke="#7a3d05" stroke-width="0.5" />
<text x="1319.54" y="432.539" font-family="sans-serif" font-size="10" fill="#7a3d05">o6</text>
<circle cx="1435.05" cy="404.243" r="3" fill="#ff7f0e" stroke="#7a3d05" stroke-width="0.5" />
<text x="1439.05" y="416.243" font-family="sans-serif" font-size="10" fill="#7a3d05">o7</text>
<circle cx="1511" cy="394.274" r="3" fill="#ff7f0e" stroke="#7a3d05" stroke-width="0.5" />
<text x="1515" y="406.274" font-family="sans-serif" font-size="10" fill="#7a3d05">o8</text>
<circle cx="1538.26" cy="411.673" r="3" fill="#ff7f0e" stroke="#7a3d05" stroke-width="0.5" />
<text x="1542.26" y="423.673" font-family="sans-serif" font-size="10" fill="#7a3d05">o9</text>
<circle cx="1510.85" cy="431.08" r="3" fill="#ff7f0e" stroke="#7a3d05" stroke-width="0.5" />
<text x="1514.85" y="443.08" font-family="sans-serif" font-size="10" fill="#7a3d05">o10</text>
<circle cx="1429.19" cy="424.931" r="3" fill="#ff7f0e" stroke="#7a3d05" stroke-width="0.5" />
<text x="1433.19" y="436.931" font-family="sans-serif" font-size="10" fill="#7a3d05">o11</text>
<circle cx="1300.32" cy="411.296" r="3" fill="#ff7f0e" stroke="#7a3d05" stroke-width="0.5" />
<text x="1304.32" y="423.296" font-family="sans-serif" font-size="10" fill="#7a3d05">o12</text>
<circle cx="1128.3" cy="391.432" r="3" fill="#ff7f0e" stroke="#7a3d05" stroke-width="0.5" />
<text x="1132.3" y="403.432" font-family="sans-serif" font-size="10" fill="#7a3d05">o13</text>
<circle cx="914.613" cy="365.678" r="3" fill="#ff7f0e" stroke="#7a3d05" stroke-width="0.5" />
<text x="918.613" y="377.678" font-family="sans-serif" font-size="10" fill="#7a3d05">o14</text>
<circle cx="662.24" cy="332.59" r="3" fill="#ff7f0e" stroke="#7a3d05" stroke-width="0.5" />
<text x="666.24" y="344.59" font-family="sans-serif" font-size="10" fill="#7a3d05">o15</text>
<circle cx="376.041" cy="291.496" r="3" fill="#ff7f0e" stroke="#7a3d05" stroke-width="0.5" />
<text x="380.041" y="303.496" font-family="sans-serif" font-size="10" fill="#7a3d05">o16</text>
<circle cx="60" cy="305.58" r="3" fill="#ff7f0e" stroke="#7a3d05" stroke-width="0.5" />
<text x="64" y="317.58" font-family="sans-serif" font-size="10" fill="#7a3d05">o17</text>
<g font-family="sans-serif" font-size="12">
<rect x="1350" y="12" width="230" height="142" fill="#fafafa" stroke="#ccc"/>
<line x1="1360" y1="30" x2="1384" y2="30" stroke="#1f77b4" stroke-width="2"/>
<circle cx="1372" cy="30" r="3" fill="#1f77b4" stroke="#0b3d61" stroke-width="0.5" />
<text x="1392" y="34" font-family="sans-serif" font-size="12" fill="#0b3d61">base vertex (b_i)</text>
<line x1="1360" y1="50" x2="1384" y2="50" stroke="#ff7f0e" stroke-width="2"/>
<text x="1392" y="54" font-family="sans-serif" font-size="12" fill="#7a3d05">offset curve</text>
<circle cx="1372" cy="70" r="3" fill="#ff7f0e" stroke="#7a3d05" stroke-width="0.5" />
<text x="1392" y="74" font-family="sans-serif" font-size="12" fill="#7a3d05">offset: raw Clipper2</text>
<rect x="1368" y="86" width="8" height="8" fill="white" stroke="#7a3d05" stroke-width="1.2" />
<text x="1392" y="94" font-family="sans-serif" font-size="12" fill="#7a3d05">offset: base-vertex resample</text>
<line x1="1360" y1="110" x2="1384" y2="110" stroke="#888" stroke-width="0.7"/>
<text x="1392" y="114" font-family="sans-serif" font-size="12" fill="#444">pair (b_i, o_j)</text>
<circle cx="1372" cy="130" r="1.8" fill="#e41a1c" stroke="#5a0606" stroke-width="0.5" />
<text x="1392" y="134" font-family="sans-serif" font-size="12" fill="#5a0606">raw vertex (pre-resample)</text>
</g>
</svg>
